<mxfile host="app.diagrams.net" modified="2024-05-01T16:43:53.436Z" agent="Mozilla/5.0 (Windows NT 10.0; Win64; x64) AppleWebKit/537.36 (KHTML, like Gecko) Chrome/124.0.0.0 Safari/537.36" etag="N9opwoPsNVL04nrJOGeo" version="24.3.1" type="device">
  <diagram name="Page-1" id="i0aX7CYGCmkKc3URfRMI">
    <mxGraphModel dx="1562" dy="1910" grid="1" gridSize="10" guides="1" tooltips="1" connect="1" arrows="1" fold="1" page="1" pageScale="1" pageWidth="850" pageHeight="1100" math="0" shadow="0">
      <root>
        <mxCell id="0" />
        <mxCell id="1" parent="0" />
        <mxCell id="I9BOtCBaJRc4SDi4wu6f-1" value="" style="shape=image;verticalLabelPosition=bottom;labelBackgroundColor=default;verticalAlign=top;aspect=fixed;imageAspect=0;image=data:image/png,iVBORw0KGgoAAAANSUhEUgAAApEAAAKXCAYAAADachHWAAAAAXNSR0IArs4c6QAAAARnQU1BAACxjwv8YQUAAAAJcEhZcwAADsMAAA7DAcdvqGQAANaNSURBVHhe7N0LXFRl/j/wz2az5GiQLfjDC+EqLqIogUqhrZcf2kKr2IamFbCFYV7Ly5/FWFqi/JHkeimveSFXaMMMU2iTVFZkQ1q5LYqgCSphyjpsxqxOTaP5f87MGZhBLjM6IMjn7evIOc85c86ZM+eZ53ue5zlnfnZDOF1RiYEDXEFErYf5jKhtMK8RtT4pn90jjxMRERERWYxBJBERERFZjUEkEREREVmNQSQRERERWY1BJBERERFZjUEkEREREVmNQSQRERERWY1BJBERERFZjUEkEREREVmNQSQRERERWY1BJBERERFZjUEkEREREVmNQSQRERERWY1BJBERERFZ7Wc3hNMVlRg4wFVOojtJe1kNrdIe9nZyAt2W8uQovFcsT9ySXpgcuRBjesqTt6H95bMixPd/GltmfYSzS73ltOapPo6A7x+A5Ue2YLqznHgLbLUeaicuHcbaFZ/ha3nylniFYkWIpzxxe+6qMk2rhlpjB/seLBSo/ZVprVoTWf7Zaqz8rEKeopYVYeXw4ViYrpKn6XbprqihEoH5rQ+10P0kr6y9ulyEHauTUXhZniZqaz9pUNto/rFiuKKTV9b+qPOTsfKDIqgNUyj8YDV25BumWpsqfQm8hq9GoTxNnVu7K9Okmsivys9Jf2xLV3jj/4a43eg35K0bBTo5zVq6H27UflurH35oah1XDPNra3+QE+r9IKVfESN16zFZ5gf5ddJ8U/r1GZb7odawTN22G1uPqeb212S9dftsuhr9aw/d+NMv3W48u/1E4+ugDq1V8plwadeLN/qJ8+aFXZfkFEuJPCpe1++tQnlaZnIeN8xWhm29eCPlophoKg+ZMOahZtdDZGO2zmv68/WFj24YctilGykvWJnf5Lyi/043LQuMjGVCI+kl20NFXnn9xt8by2stlUlErUjKZ61WE6n9Mg07p63Hxmm7sPdLrZxqOVXWcgQ/4imuwIbrh0GPPI11+SbruVqBHa+MwqChhvleD4tl5yej/Ko8X67V81q9DTuelZcZ7omJy4ugyl+NSfJ6vYZ6Ivzj8/JrgMK1UvpqbPngabFOwzKDApejsFqs70n5NWI9gyJ2oeqa/CLh5v0Nw5bj9ftrXO/OT+aJbcrr8RiOOZ/I265Jw8LhEdghRo/ETRHzl2BPjWEWUdPOY9+HtYjbEovaDz9HlZx6q7THt+E5k/PY7Bw1of7CPA9NWpYFlUl+EBkC8cEiH8h5SFrPc5tLYf03AVHHZ6hNXIKVG43f/3LN4rXzyIieUl+OSWXLJDFPLsekcmNSXK4YS0a4NH9tkWGGyEnlHyyGr1Tu1b0uGhk3Z1Wi1mWMJm3rhxt/jxly40//+OHGD/94/YZ7zCGRYoWLH9144ZduNya8fujG19ILf6i68ffXf3Oj35BFN/Z9Ky3ww42Ct8aJ6Rdv/OVYrZRwo/ZY0o0XhriZbEuuZfnltBtr88QyOnFFt81QY9Pvha03SqT1XCm/kfLiEMNVnryDBW9Jr3G78dS7hTdqxVVj7bGt+n2Rak02S9sSV36nP3zxhrtI+9Mh+UUt7m/9evXLXBHH5VLhjbVPibQhr9/IkVdj3Gfra5SoSVdrb1z9zsKh7nNoHa1SE1medOO3TyXd+PpG1Y2/PBV04y/lcrpFGtRE1h668Scfwzl6SaoxEXmm4N1p+nPfWGNorPXsN+GtGzmXxAGT8tV2KT8MufHK3wx50VhT02+CyFdV0jI/3Pj64Os3Jpgsw5rIu8y1HxvPU40OV+UXtR7b5DVjGdLS8NaNAvkVTTHmG/dpq27knKuvOTy9XeQvqRw7Ieedi2k3XpHKMZPWAcNrzbfxQ95bN34t8tMLUquVlFe/PXHjL1JZNmH9jRK2YN3d2lmZ1jo31lxOx5zhGfBJDMEQlCIpvBABBesxpYc8vwUnNo7HpBXjkFgWi/HGvsRXz6OwqAr2Q/zg1mU/Fj48D+WxGfj09wPkBYCqD57GmNccsOafWzDFSb5p4LktOPnmOOhXU70L4aOigbePIHGqk/412qw4DAo/X9fBv3D5QARvDjHZtgo7w0dhKeJxNHEa9K/SZiHWIwJV8nr0+/vhNHz697kYcq+0gMkyK8Uyv3NqZL03b9t4o0O5yf7R7SnbNAcJ+fJEC9ymxCJmcuvd5dEanf1PrB2Phd8uRpy/I1SZcVj54CpkLxgsz21JEzfWSDWKxvM4dzl++dw2RHx0GtEjRG7Q3xCTK6ZL9NMGDfJI6QaMmbQLT+89hPlD5UWgxaHXPBFevQpHt0wGeGPN3aV6H5bFpKFcnmyeN6K2zoKHPNUabJXX9Dc6ir9VafMxaf/j+HRdEFxwHnvmT8Hnj+/FxqC+Ym7LN70Y8s0lxB3Yi7D6IsvANL+Jde98bjyW2tWXN4bXDkDqmaXw0S+jRsYrwzHn+ioUr5sMe32aUJGMSROXY3xqCZZYdp8cdUDtrUxrleZs9RcZODTCAeqiL5FbpEZP/1JkfGF5J+TywvPAuMHwNM2X3frC5zERQEqBaMUJZIg/o4aY50YXdymLZeFEpWFar5uDIYBsgl33xubawaHZF5muU2XY32+TERU8BZOmyMPTy7FHzD1yzrR9wXy9jW+bbMlh0Ej4+1k2jHhIKb+qg7hWikO77MRFVTly875Euf1gOO0S579ps7K1Llfg0M7ViJ0tzuFJozBIBJA388MAqeys44SBvxJ/sir0zemqU0Xirwo7XjXJD1OeRvxnYmZu+W03uVM71NUFIxrJU40P7nCQX9be2fWwFwGiPXp2E9/VdnboqZ92kkZh181JP8/yu6Z7itfIo0bXtKj61y5sWbYYz4l8MnG4CCCl1utmVeBEpviTux7P1uUvMbyyQQTxWpw4xxsz72btrkwzVknajtSsNu7G2mPypOTY+hu/1je5WWbPi24mnZgbUbhK35z8f3nytFHeW/omA0N6IzcNyM3OZs3F+tfUN6sZmp1Nmw7kpjmz/TFtdr5k2N+gt27s+ceRGzkNh1OGZoqb1ys02Lb5euluY+vmbH1XkXlpN4yNyDfE2J55hm4klmmQRy6mGbqETHv1xl/SxLl7rOpG7SHTPNV0M7Tp+X1pt7RM0I3/k9ZxU54o1+8vm7OpNdkqr+lvzhSD/uaWZ5NulOinT9z4y7P1N0BaclNL4+f7DzcKVv1GpP/mxuxVH934+z8Kb5y+WH7jLw3Km5ubswtv/Fm6aXXe1kby15EbBVIXEqI2IOUz29dEagHPResx3bStwmMaNi4aop9niSGPDQaysnDE9JEl1VnYsno1MqRaxgFDECD+ZOSW6mcZlR+TLuEmw0eqFWkzTnDz6SsuDrVwGumHUY/Jw6NDMNBtCIb3r2tsILIpbc/H8dfIx+ubs8RYQGQSftPz1m5fUX2RhkOacYh7Nx5hk8U5PLRvE88rzUXpSZNtXKtAgZT1/IfARfxxcvcWfyug7eFTnx/E4OnuBs+RA0z2l6g9k2/OFIP+5pbcOPlmsimIFZOGGyCl6Vt9/E4pMtZWALPeEuXjNIx/zBtuznawazH7DsAQf/Hnoh1cTPLXKG9R5gzxgU9ftnBR27FtEHm5AkfyqvADanH6y1wc+UIeviwXKT+gKi8X5RY8y84taB6mKPcj6g8bUFiphrqyCOtem4/4bWrYS8379o8jInIAqlYvRmzmeagvq1GVuRwLV5XCbUEoxrdxKTXkd4sxHsmIfW0XTlSL/b18HkfWvohfj3oaW76SF7KQnRI49NkuHPqiCFW3FguQiQtZiUja1nA4jAvy/I5Ji6qiXJRcAn6oKqzPZ2IoqPoBuHQCR4rOW3rNVsfeuS/sUI7SYpGnrmpFvstC7P8lN9odZOef47DzuArq6grs/b95iD9uh7DnHjf0GR48DUtEIbcjTl5Gyp9frMYL40chONH8wo/uErUlyLgpnyUio7htnqXYOrwRfeY0zorh6NvjgHHxOKqfPoLlYnL820f0887W9VW0lhP6Sn0XvyoU5YYW2qsqnPjLW4hv+CDpLtJ/n2NvisjjX0nH0x7jn58LtyJR5q3ORZXIX+rqUuyMexq+v34VGXxe7F2tvZVptg0iz2UhfsXyZodD5+Rlm9PjcSTsjseTFzcgeLy40hv/NNadeBxxu5dilFyiDYlIwgeLemJPxHj91eCYiF2wC9mCvy7wbrTQa1XOk7FR7O/wUnGlOkq6Mh2P55KBsMQkzLf0Hgc9b0RsmokhR1cjPGwx9vI57bet9mQeMnMbDqfERU1HpsaJXY3nr7phV6n8YGTL2T22VOQfe+ycI/LUUE94PbULg/+fyHPy/Hp+iPujH7KeHwWvUQFYuEuNKW/uRfQ4Y85zwpQ1e7F85AnEThHLSPkzTGQIKX9GWJUhqKP4vgr5N+WzPOR/rZEXoJv1Rdg7qxBQvFyUG54YNHQ8oqpC8EaIPFvm9MRSLH9CjR3RYXhu/Zf6fG3nvQh//WAu7ksOwxipNnTUFMR+MViUkW8hwMIbWKljam9lWrv/2UOtWro7zg72Tf0O4DUt1P8VS9xvD7u6O9zuHP3+Xr/9n6jSavX9uOk21Z7JQ+VNz9v8BVx9+7d55/72nM/M6H9mTZx/FuQp6e5VNLecFeuiDkxbjbLiKjT8zRlFn4fh0UchT7UdW+c16RdrtpwagojnvGGv/8WabShxn4mwEbZp9tLfBf5ze9g3vPHGVBOFgv61XZopI+mu0t7KNP52NlEbYT4jahvMa0StT8pnrfaLNURERER092IQSURERERWYxBJRERERFZjEElEREREVmMQSURERERWYxBJRERERFZjEElEREREVmMQSURERERWYxBJRERERFZjEElEREREVmMQSURERERWYxBJRERERFZjEElEREREVmMQSURERERW+9kN4XRFpTxJRERERNSyuiBy4ABXOYmIWgPzGVHbYF4jan1SPmNzNhERERFZjUEkEREREVmNQSQRERERWY1BJBERERFZjUEkEREREVmNQSQRERERWY1BJBERERFZjUEkEREREVmNQSQRERERWY1BJBERERFZjT97SNRGmM+I2gbzGrU3L+w+inOXr8pT7cehmePlMetJ+YxBJFEbYT4jahvMa9TeSEHk9sKz8lT70K9HN5xdMkmesp6Uz9icTURERERWYxBJRERERFZjEElEREREVmMQSURERERWYxBJRERERFZjEElEREREVmMQSURERERWYxBJRERERFbrYEGkFlVFuThyXCXGSKtWQ3tNnmjPirbhuSWrcei8PE1EREQdXscKIku3ITw0EVU9nGAnJ3VeKhxaHopfPzIFK/PbeUg9NATLH6tCeHKRnNAOadVQ88qEqNVpLzOjEd0tbBtEVudi3ewAePUfiF+KYdCop7Fwcy5UJrVlqo8jxLwI7KyWE5qhLtqA4OHD4TVqHnZWanGiQosXP1yH6X3FzGtaqC+3UBNXvQvhYj/CP1bJCXcTJ4yfuwhP9i3F3rwKOa11FS6XPtflKJSnmyY+q41Pwzf4aUycGIdDZfux/vMhSJ3rLc9vQypxTkaMwiD5nPQKjsPOr0wLMcO+DvIQ55kYnkssNavlrhLnq9cr+6GWp+8sFXaGG96HcfCaOAWTZi/HXrP3JGskP8Z+XAp1I3lG9cUGzJk4XF6vJ3yfFseptH28a7qztF/tQmyw8dwYjuDXdqG8mZ8A1mbFGfJb+C5xxpo4vx9LJ4rzcLgnBk2KRoZpGXC1CPETA7CuVJ4mog7BZkGkNn81Jk0Iw8q8nnjyzVX4YMcqLPEDDi0Pw6/n7EKVVc2uWlR9vhxzVqsxP6MAR7f7ITdyMY70nYvpQ+U6yH+thtfwJdhTY5jsjE6kr0bV03txIGKwnNIeaFG4eTHia+fibzs/wqer+uKj5ScwLiYEPvbyIm1FW4SVz4Zh3cVxiN6yQ39OhnXZhaVPvYqMy/Iyqv1YucIJCQWncfbAIvywbCsOGWOn86LwfL0v1sQ/jrbe9Wb1HYewBXMxXwxhT/jB7XwyFgZMMSuAm8qPe/4wBb4N8qPqkwj8OmwDqkYuQuIOcZy2xOLJ+9KwdNLTWFnEWqNOTeSBOU9FY0+3mVgjnRvvhACfRGPSwia+06/mYuWfks0uxIwKd4nv8KC9OHumBBu90xD/ifGE1eLI6sUoCFmP+e3pq4yIWmSbIFIqrBdvwIleM5GavQNxz03GqMcmI2LlR/jHFvGlkxmHlfsbqdWQmhAvi+GmdkQ7uPxmqSjM5mL4vWponYKQ8Nf1iPCWA0jpdbXSa7TQftvY65vQWO2lSVrV56uxI99kP+V59a9RISN6CpZ+Jq6vr0rp8nb142JoajcazNc2t6yR8TVNNf2IY+A2IwkJT0jVsub065drCvTjYmip76TVrzHu3001EnbwmbUeHyzwgd1/xTr6hmDjB0sR0LftOyBoc9OwrmIwlqyKR5i/n/6cXPLeWwjQpOOjLLmO5HwVCuAClx5ifMAQDMd/UasR49cqsOOVDXDbshTju+mXbD/cHsf8RYuwRD8sxZqd6xCmrMC6XbmGwru5/LhjJnpmRiN2j7GO6Dz+/nEWtE+8hb/Gh2D8Y+I4+U9DdGISlvQV6/ycVUOdlwjutsXhUK9F+GviXEyRzo3JYnyd9J2+AXu/kherI11AxmGLnbjAeU5OqqNCVYUWbr2cxLgdPL38UKX/DhevylqO8DNzsea5AfppIuo4bBJESoX1lvN2iHhrKXwaFLj2/uIKdsFMuFw3vxlG/cVqTJKaqqXh4eGYtLrIZL4WJzaH6ZsX9fPFMOiRedgr35ihSl8Cr4hkMZaL2Eli/sI082aTpjRWe1mThoVi/Sv/pUW5+GIsvCQlivEPFsP3YU+z7e84fgInvlCjbz8nFK6V0ldj5yfz4DVU3k+xv3M+Mb17RHyprp6CQXXzAxCfn4WVYnxhehN7fO28PlCte81wsQ9h23CiLlhr/tgAIoCQ0lfvwt75Yl6jyzTU9Gt2NNJMetr0PYu/Zu+5kf0fNGk1Cptp/motdn6LUFyQhLD+coJEeT96Sn+v66dE4OiG8ShEgXif2uOFOKLsqw8oyz94FUkjpdq7DtD7ttsQDPYVZ0bleX2ze7P58bG5WPIEcCjpc5TrU8T7viL+aH4QYybuHYz52adxdukd6IJA7cO1QmT9RYvxL03DkHvFtHTxLvKx3bhYnDxz6OZaw9JtiFqrRcQbcxu58HKC25C+OFJ8QlxAq1FwNAs+LiKgvJqF+CXnEffGNLhI2yCiDsUmQWR5WZb4fxr8hhqmzfVFgFRjMnmAyc0wuViX5YSEgyU4efwQEn/fFyfWLsYWudJDLa5Mn11+CU9uOYKzZ0RB9q+PsKTffiz8k6GPjdPULTj70UwxNg7Lj4j5idPEV9Tt2fL0KKyzW48lj9vrmwLDX9sPz8i9KP5KrL9gL+J8DiN2SgSOTFuP+tbjbdh6bBo+PS7exz/FPnqrkfHaNhyRS2P1Z6/i2bUVGBVrXM8q9N2+BDsMsxul3r8Kc1LsMD+1wPDej6zHk+dW4097DP0eWzo2dRK3ofB3e3GyrARHP1oEn8v7EbVNrqlqSspyZIxM0u/ryX/uQMSD+xH7oggAzV6UjKQT4j3/S3rP4rj4a5GxZBUy5ApcKfiek9YT0Z8a938VAs5tEMfhDtxUY2cP+x72sDMpnKo++UAcf2+MGymfMfaPY8m6Ich4RgS7z3+OUevmYlTFBsxJ9kHCAu+OcQPXNRVUUkR4v4N+f5vPj/bwecwPEAFzuf4zG4DA58fBLisaE8KWY+cXFVDdgYCf2qHq8zgh/rj1UGPHK6MM/YaHGvoVZzS8IL1WinWvrIY2PL7JC68hYeL7tToavh6j8CdtLBKetBcXnEtQ9WqsoZ87EXU4tqmJrJW+UezgYHGJOwBLFoVgiLMd7Lr1xfiZMzEK51FYagiD7MWVbvFXGSJAMRb03vCRKkSyKlBlSLG5iI8KkPrm4+JqWI1DSdtQNXQpon8/GPZSANJjMMJilsJHjDr0Nb0zPATRS8fBpZt4H07eiFgQAmjOo0rf306NI5+nQ9twPS/NNNSENUGr+a/43wH2D8q98JwfR1x2CVLlph6Lj81zYrv+fWFnZwenETP1zUvGmqomuS+q21c7Jz9Er1oEl/PbsDfXNIqchiWR4j3bS+9ZvJ9w8Z6RjkK5acvt9x+JwHYLwgYb998bfl5i21+VW1Zb3Iq0+csRHp2L8W+vQpirnCi4PBGLVKlPZMFHiPY7j5WvpGH8WyLwbm/N2EZaLS7JXQ7UlUXYEb0YK8/bIex3Y/V9N1vKj/fdK82Qm+0Fp99twT92LMX4q7uwNCwAvvpAQVzU5d7pT4zuqOoKHBF/drzyNPb2W4kDBQU4ujcegepkzHnB/OKy/IPXsfJiCOIW+TV94dVtMCLExe/JM+LC9p0QOOxfgijNUsQ9yQiSqKOySRBp52D4EvihhX539XqK4FEelUhBizxqpK7Mwo7VcZgzZQomjfLEc4nyjFZXgROZ4o/fELgZEgxcpf5ywKFTppfg5gW1XXfTd9HEejy8ESCPNsYpcC4iBmQhdrwnfCeFYeGyZByqMA/9LDo23Qy1UgZiPy0JiEYOgYs8qverwRgv/lTVmG6/QXCikP8aXdOi6l+7sGXZYjwn9m/i8PFYmivPu4O0xzfg2ee3AbOSsHFqU4WWFoUbXkXGE29hicd57HwtDJPEe3jutf1W3hjWynLj6ruCjH8asZ/ZYfrbexE9zvDBtJQffxCfkeS+Lvo/ek6PzcQaqfa77AgO7IjH9G6HEf/ceCz8rNnLDrqbdREXitLf363EX0Vw6NLDHk5Dp2G5dHFZsQEZxsc0nN+F+LhSTHl7keX9h6vTEbUMeOPNabgvb4Phu2zKPGw53mxbCRG1MzYJIt08xon/P0dhmWHanAqHNq/GynTzR6c0R7pb1HfifOxVDUBA5FIkfHgEieHyzA5DfAE/KP5c+8EwaXRd2/xx6OaN6H0lyN67DkuCBkB7eDXCJ45C+CeGWqE2PTbaH1Erj1pGBGFrp2DM09tQ2M0PL0a+jo1/y0CcdHrcQdqvkjHnmdVQT9uCv/6/ppuopW4MUZ8FYc0Cb1R9MA+xmmnYuH0VfvPNPCzc2bD97g7yi8WnBQUo1g8lOFuyF8un1ncXaT4/qlH4hYjq+3rDrbE+IHZOcHtMurHmI0QP1WLvx5/f8RpkukN69cUo8WeU1xDzPOMkzhHxp/wb6cxQI+PdOBzCYODUNqxcLb7rxbAjT1pgP9aJ8YxK6UUmrkkXaK/D/s2VmKLcj5URWRjy2la8v8gFSc8sr+sORETtn21qIv0eR5jyPNa9e/NjH7S52xC7fAPK0bfJwtucCn9Pz4J2XCw2xYfo7wgc4mpv4WstUQ6VSamoPVEkvgBNDcAQf/Hns1ycMH0vXxXqm3amDLP0DkKxnrHiT8p+HDLpY6bNPYyd8nhjpF+hUVWr0XPoOEyfFYuNB0SA4KfFIXFMVK19bHILUW7ynrXHcpEh1u7Wz9Iep6XIWFsBzHoLGxdNw/jHRKAidVm4k4WC/hElcSgYtwqJfxwHJ6lbQWOuFmHlq1mY8s5cDLlXjfITFRjl9yhcegzA+Mf9UFjVjkIpOzv07GHo72nf4+ZPv9n8mL8B6z4DfF4KwhApQZWuf5bqpL80eNZoI60D1Mk4D4FPX+hvhjHNwtqTpeK70Pi9IObcK77rxAVHeVYWDsnDiXNi1rcnUCDGq77Vv6xO1Z44xCvfwhtP2Iv8WY4jGh+MGuEEp8fGIqCuOxARdQQ2CSJFqYXo7TPhkhmNiU8uxpb0XBz5Igs7l4fB97ltuOQfj+hAS5+0Zw8XV1F8lZeioFIN7VU1qjLFl05KgyJN39SShc93ZeFI0XnLajkHDEEAzmPl4mjsyBT7mL4a4asLzZtwxfYDXloEt/OrsfD/xBegvt9ZFuIXr8aJAXMR5m/p+7DD+GfEejTJmDPdcEz2bl6MZxNPGArvJpR/8DR8A6Kx87hK3+dNdVy8x2KxNte+Ys8sPDa3qkJ6z+koF0Gs6vguxMYlQyve85SH5fktcpIquPQB94lqrdg/FU785S3Ei/2vc60UWyZ5YlBEuqGGq6Xp2yECyHBxLA91m4wlUx1R9aV0XsrDV6bNtA2fU2ePnv3scEkE9JKq8ly4WN7h985rLj8+vQ1VIj+uMd7J4DQWT0+2w4m4eVj6gSj8xXlVJc45qZ9l/HFxDk8WgbdhSep0BiNs6WTgg/l4dnWW+F5QoTxzNZ6dL74XvJfiaf33ghMC4vfi073mQ8I0Mct3Ed4X4xHSd4JRw2evOrnADWrUShfa+ht57oeDUppBRB2BbYJIwW7EUqR+Go/pdocR/0oYnguLwNLkcgxftAP/2GjN4xvsMOr/JWG+/S7MGT9c/6iYSZ8MxpJIP3m+zHsmEsMHi8I/As+9kiY/rqQFPSYjet00DLkovsgiwjBnux2WrJpp3mdRMngu/vrBIvRMi8AYfb+zCOy0C0HiXxfBx5pYQqzn04xVCOtbgb1bl+OjUz54Y+Or+r6VTRkSsRVrgi4hfsoofZ833ynLcSkoHp/+P6nDuoXH5laFrMMb9lsxaZS03Wjssw/Bxvelmjl5fov6IuydVQgoXq7vqzlo6HhEVYXgDeneGxNarQj5NT/A2NDf0vStUn25H4ekm0dU6YgNl85Jk2F3fc1bY8+p85kWi56rpsBX35XgcSz5Xcd6CrLl+VFcNIkgYPlz9tj3WgQmifNqzJQIxH5u6Ge58XcMITsz+ydW4cA7IiJMjsDEUaMwMUJchPiJc+v9ELhZ/L0ga+zZq06PY/6sQoSPCcDEKXGoXRSK8ZZepxPRHfezG8LpikoMHGByu+rtkp4nprFrtKnNGlLTrlYETvb2zaznmtTHUIRXVn6hSXGKnQW7Jz14W/tze9jf6p26UnOi6b5psxDrEYGqt48gcWozBbT0oPP/ind2v/kjaowsOjYWK0J8/6exZdZHhucCSp+f9vbWfdvHrT1o4TOwls3zmaUszY/y+5Uu5G4379LdR5+nlSJPt8KpYdvvszuY14ia8MLuo9heeFaeah/69eiGs0smyVPWk/KZzWoizeifz3f7XwZ29mI9LX2p3Gt9ACmxJICENhcrJwyHb9yt/XZyVfo8eD08BfGZ5w2//qI9j0PLl2MHBsBvWAs1POJ9NXzGoSmLjs2tkj6/21y3ndRfryMHkJIWPoMOw9L8KL9fBpDUGH2ebrWvnNv/ziGittc6QeTdoosLhowbjPGDLL0pyJxL4KtI+J0ddkaMx6BfDcQvPcYjPM0eYeu2IuJX8kJEREREHVDrNGeTOX1zomHUVk2j1PEwnxG1DeY1am/YnE23Tv75vbuiaZSIiIhIYBBJRERERFZjEElEREREVmMQSURERERWYxBJRERERFZjEElEREREVmMQSURERERWYxBJRERERFZjEElEREREVmMQSURERERWYxBJRERERFZjEElEREREVmMQSURERERWYxBJRERERFZjEElEREREVvvZDeF0RSUGDnCVk4ioNTCfEbUN5rXO69zlqzj33VV5qv1I+MdJZHx1UZ5qH/r16IazSybJU9aT8hmDSKI2wnxG1DaY1zovKYj85cpP5an24zFXJ3xRqZKn2gdbBJFsziYiIiIiqzGIJCIiIiKrMYgkIiIiIqsxiCQiIiIiqzGIvMO0ajW01+SJ9qxoG55bshqHzsvTRERE1Knd4SBSi8KNYZg0OxkntHJSe1OdjoVTnkZspvldVarjpVDddvCnwqHlofj1I1OwMr+9HgDZ0BAsf6wK4clFcsJdRquGup1/BER3A+1lZjSiu4Vtgsj85fhl/4H1w/AATJoyD7Ef5DYfaFWnYd2KSxj/0jQMsZPT2hUR5G5fhYyeoZjv7ySnCV9tw7NTpuDXa283oHLC+LmL8GTfUuzNq5DTWlfhcukzWo5CebppWpzY+DR8g5/GxIlxOFS2H+s/H4LUud7y/A7mmhonPo7GROn8XG76uRne5yCP4fASw3OJpSKlXtXHEfB6ZT/U8vSdpcLOcLH/E8Xn18hj0Bp+tiqx72b50mSIz5cXkqlLdyH26VEYJM/3mjgP675oX4+joDvsmgpH1kbA11M+j4aLi+uPK8zyi151LlY+7SmWicDOajlNcn4/lk4ciEHDPTFoUjQyTOddLUL8xACsK5WniahDsGlNpM/v5mL+AjGE/Aaj3FTY81oYfAPFl0WjTaCi8P5sP7SRb2G+d7uMIEUpfBh7c72R8OZkEe6Z6B+EuDdjkRhy+wHVifTVqHp6Lw5EDJZT2gMRPG9ejPjaufjbzo/w6aq++Gj5CYyLCYGPvbxIR1KdhfgnR2HSW5/jkpxUR7UfK1c4IaHgNM4eWIQflm3FIWPEeF4EVq/3xZr4x9Gu3nbFNkSJCxjL6nP6Yvzv5XxpMviYnNBSoOwrCvWdmkcR8fYWfPBOLJ7s9SVWho3CRBFws96I9N8Ja0Px3HuX8L+vinNkxw6sCQF2/mEKoj6TM4x0ofbBPHiNisCORq6JC3ctxpGgvTh7pgQbvdMQ/4kxYtTiyOrFKAhZj/nt6WuQiFpk0yBy+DOLsGSRYYhe+RGKs+Mx/uIuLFzRSE3ONcDldyuxccYA/biZq2qojU0e+vFmmhobzNc2t6yR1HQpLSfX5kj9Eo3jprR2j2LJ9tcx/n45oY49PJ8IgmdLkYVx35pqvhH74TYjCQlP9JUTTFhzDGT69258T/rtttDf0rjem967HXxmrccHC3xg91+xjr4h2PjBUgT0rQ/267Z1TWtYh+l7bHB877TC7fNxZFgsDmRvxXQ5rc75KhTABS49xPiAIRiO/6JWI8avVWDHKxvgtmUpxnfTL9mulIsgf2VuSye6xA2/eak+XxqHAONzmC+nI/4PWYB/PA7sWYUlU8dh1OQQxO04gtRZA8R2XsUW1g6RNhd711ZgyOJVWP6cOEce88OURVvFd5cWez85DH2ddc3nWLnqv4j44BA+fdVP/7J6KlRVaOHWS7p6sYOnlx+qag3nrzZrOcLPzMWa50RZQEQdSuv2iew7DWveehza9K3YUymniavO8g8Ww/dhT3gNH64fBj0yDzu+qi8QC9dK6aux8xNxVTvUsIzU1DjnE9MqTXFlvHoKBtXND0B8fhZWivGF6U03w1VJ65SaLqXXDPVE+Me52LNQjJs2TauyEB8s9uvh+uUmLcuqb5qvScPC5rZz7Twyok32bbh4r2HbcKIuqNLixOaw+v0Qg3QM9pq8PcuOgaki/Xv3Wr0Le+eL9Zms1/TYGp02Xa/4a7beRvZ/0KTVJk2oxm1tw45n65eRaq1U+asxST8tBv3xbWp/247bTFGoxU+DW2PB4AA3jEchCsQx0h4vxBFlX31AWf7Bq0gaKYIqv3ZYSz5uKZaHA1siluPQbQbqVZ8lIQPjEPfmNLjcKyfqiQuJl95C3ILfwO5bNmt3el38sKSgAH81C/TsYC9dfF3/wTDZYxwSsndgvp8T7jOkmHCC25C+OFJ8QlwMq1FwNAs+LiKgvCq+a5ecR9wbDc8/IuoIbBJEqo1XlLUNaqQE+8F+GCKCjsIThrpIrQgywl/bD8/IvSj+6jTOFuxFnM9hxD7VsEDchq3HpuHT4yU4+c+PsMRbjYzXtuGIvHr1Z6/iWXFlPCrWuJ5V6Lt9CXYYZjeudAPCl+xHz99vQXaZeE1ZBkJPLEfsUXm+ngo7oyKwRR2ExOwSnP2qBNlbpkGbGIHZH1jWb1G9fxXmpNhhfmoBzp4R2zmyHk+eW40/7TG8Xi2uvJ9dfglPbjlimP8v8f767cfCP+0yXNHXaf4YNCplOTJGJumPycl/7kDEg/sR+6IIAM1ek4ykE2K9/5LWK46/vxYZS1YhQ64uloL8OWk9Ef2pcf9XIeDcBnG8G/QBTfwc6j+I9/BVAT6NGYfyzU/Dd4M9Ev4hXnM8A8v9gUN/2IZDze1vG7B3MuuMYM7+cSxZNwQZz4hA+fnPMWrdXIyq2IA5yT5IWOAtisn2yB7/u2gVInolY050S/01RXD8rVwzXDcYPxA1ThwVn+nQsRjuLCeZ6uGNsEWLEPFYM8ePOod7pYDRHvamGeJ8GpI+AHz8/Qzdfeyc4NRMrf2QsPVYUh0NX49R+JM2FglP2ouL1SWoejUW0xtpjCGi9s8mQeSzy9P0f/csD8Wzzyeb37TRzQ49xR+1Riq41DiUtA1VQ5ci+veDYS9defYYjLCYpfDRiMBmv2kIFYLopePgIl5v5+SNiAUhgOY8qi5L89Q48nk6tA3X89JM/baacuLwLpQb1yt9Gdr1xfiXX8R4qfnSqHQX1mcBYX9civFS86348nTxX4q439uhcEWaBTekiGJb81/xvwPsH5Tbu50fR5wISFPlq3j7cbEiyMsQwZtcONt7w0fqXplVgSpDiqy5Y9AE90V1x8TOyQ/RqxbB5fw27DVr+pyGJZFivaJEsHMSxy1crBfpKPzKMNft9x+JwHYLwgYb998bfl7ifX1Vbh7kPjcXESPEMvfaY8gTj2O8SBr/RBCGSLUT3QbgyeemiZHzuNTc/rYDLk/EIlXqE1nwEaL9zmPlK2kY/9Yi+LTDZuw63byx5K2ZcElfjIWfNFdTmIvYScbaYuMgLir087SolU7VX9iJs7Ve1eersXK1yfD5na9NpnZGuhHmhWgc8Y/HGksjwG6DESEunE+eKcHRd0LgsH8JojTiu/VJRpBEHZVNgshP35KCBWD6W3vx6d6Z8NFPya5JRZWIk5RS1FaBE5nij98QuEnzjFylvmjAoVOmhZUo2Eyueu26m14CN7EeD28EyKM3U6G8UKx/3GB4mq6qhzfGmXTfUZ0qEoHcOAweZLqQHQYOEQtpSnHa9I7CJjgFiuBqQBZix3vCd1IYFi5LxqEK8/oidWUWdqyOw5wpUzBplCeeS5RnmGnuGDRh5BC4yKN6vxqsD+6qaky3b75eKOS/Rte0qPrXLmxZthjPif2bOHw8lubK80x1c2i2ps6i/W1XtCjc8CoynngLSzzOY+drYZgk3v9zr+1HVXN9S+8QuxGLkLCgLw69Fo2dTcZ5foj7tADFBaaDCJD188R5IPX3FRlUbpDUU4lz81CWNHyOHWs3YF0Rm7PJxNVSrHshFFswE39dc4vN0NXpiFoGvPHmNNyXt8HwPThlHrYcN73YpY5ge+FZxP39RLsZ3jki14ZQm2jdPpGCuigLRzAYPu62vL/VDnYPij/XTIs+4bpWH7A2TrxGKf40KDClBO0VedRWunkjel8Jsveuw5KgAdAeXo3wiaMQLtcYqT6JgO/E+dirGoCAyKVI+PAIEsP1s2xP+yNq5VHLSHdhTsGYp7ehsJsfXox8HRv/loG4cfLsu5jU1SLqsyCsWeCNqg/mIVYzDRu3r8JvvpmHhU1HaXeQHXwWrMKSXuKCJW4XTjca6Ep5xd7QFFk3GIN7e7gM6gvkZqHQpLbYZ5Z0MSiG1Fj9jUguZlcc1KldrcCOhU9j5eVpSPzr0lurrb8mXaC9Dvs3V2KKcj9WRmRhyGtb8f4iFyQ9s7z57jrULr3+95J2M3x8gi0nbal1g0hVFlau2A+MC0GgviV3AIb4iz+f5eKEaYH3VaEINIEpwyy9O0+sZ6z4k7LfrB+lNvcwdsrjN7OHm89gUWDuwiHTro0Vudh7XB4XnNy94YIsZOWZ1txpUXI0C+jrDc/G+o41IN3trapWo+fQcZg+KxYbD+zFcj8tDqVnQSX+/V381Y6Lxab4EEx5zA9DXO1FUW8juYUoNzm22mO5yBBrd+tnab+2UmSsFQdo1lvYuGgaxj/mDTdnEYjc7V/sV4uw8tUsTHlnLobcq0b5iQqM8nsULj0GYPzjfiisaqe1cfcOxvxNsRiSGY2ljdZmN2/IE1LLwX6se+/mR/lU7UnEDnHujB/Ku2ZJkIK/hVMQWzgWa96Pxfhb7CpbtScO8cq38MYT9sD5chzR+GDUCCc4PTYWAS111yGidsWmQWSVCFiOfCEN6dixbDEmjY/AjquPY80b0+TnLNoj4KVFcDu/Ggv/L0t8Waj1zbrxi1fjxIC5CPO3tLZSFGzPiPVokjFn+mJsSReB4ObFeDbxBIbISzTGLWieuPItQuzTYYj/OAuHPl6O5/6QJj1Kr97gEERPtkPGq0uw47gK6ssqnPhgMRZ+LLYpgqrm1m9U/sHT8A2Ixk7960VAeTwLnxeLvXbtK46APVxcRchYXoqCSjW0V9WoyhRfqik2CiMrpGObjnIRxKqO70JsXDK04thOeVie3yInKVbWB/YnqrVi/8T7/8tbiBf7b2vqz6Ph1T8AK4sM4UtL062n4XPq7NGznx0uiYsBSVV5bvuujRsQgjXxTVUVX0JFnjFf1g+F5+Vj6ipe+/Y4VEk3RYUtx85MaX4Wdi4PwyT9o3/ewvzHWBPZ6UkB5JwALM20x5TF4vv8nOn5VNHCzV0mGj571ckFbuLVtVJlQPV5nMD9cJBajIioQ7BpEJmxLAzPhUnDYsR/VgGXkFX49NB6TDEL0ubirx8sQs+0CIyROvmLQHOnXQgS/7oIPtaUVWI9n2asQljfCuzduhwfnfLBGxtf1fetbFIPEdAe2oFoUd4eSVqNlQeBF99ZhafNOlaKQDd+L5YHXUL8lFHwGi49pLoI49/ci42/s+zSe0jEVqype/1w+E5ZjktB8fj0//lJjYsY9f+SMN9+F+aMH65/jM6kTwZjSWTD56rdopB1eMN+KyaNkrYbjX32Idj4vlS7Js9vUV+EiWMSULxc31dz0NDxiKoKwRvSvTe2dv0HEb6poDX2L2hpupU09pw6n2mx6LlqCnz13RAex5Lfte+nILtMjcXyRuPIUmx5xZgv64d1X9YX+y5Tt+AfOxZheHkylkZI8yOwNLkcwxftwD82NnjQPnVONbn4PFO68FBh72sRDc4n6YZFCzT27FWnxzF/ViHCxwRg4pQ41C4KxXhb9nwiolb1sxvC6YpKDBxgfPpw25EeWK39uT3sb/UuWKnZ1jQ40mYh1iMCVW8fQeLUJoq+hq+B+GKbEoBYv49wdqlUBWdCemi2BrC73x52t9J5XHoQ93+1Tb5eavYWc2Fv9tyMW1WE+P5PY8ss+X1I+669vXXf9ufT0bXw+VnrTuUzq0gPoP9RepwLax+p7dj2u7CD5LW7hHRjzQu7zZ6Td0f1tVfivFRwtzOPuTrhi8r21S2qX49uOLtkkjxlPSmftfqNNc2xkzr532KAUpU+D14PT0F85nnDr7Joz+PQ8uXYgQHwG9Z4ACndODHx4eGY80Ep1NJrpJ/p+styxB+3w3TvRvp92Uk3IdxGACE/W62p19vZi/Xb6EvzJtK+3+a6b+fzuSu08PndlbpJ5zwDSGpbrfpdSESt5o4GkbfDJfBVJPzODjsjxmPQrwbilx7jEZ5mj7B1WxHxK3mhBuxGzMWal31Q8NYUeEmv+dVwTFpxAqOWfoS437ANhYiIiMhSd7Q52ybkJmeJxc2OcjOlxFZNlUQtYRMbUdu43bzW3ppojaSmR6kJsj1hc7Zl2JzdXslNzlY1Oxp/wquzNVUSERER2UjHr4kk6iCYz4jaxt1aE7nQ71d4oOvP5an24V8XL2NP2Tfy1J3HmkjL2aImkkEkURthPiNqG3drENnXQQRIte0rQHrM1VEERzXy1J3HINJybM4mIiIiojuCQSQRERERWY1BJBERERFZjUEkEREREVmNQSQRERERWY1BJBERERFZjUEkEREREVmNQSQRERERWY1BJBERERFZjUEkEREREVmNQSQRERERWY1BJBERERFZjUEkEREREVmNQSQRERERWY1BJBERERFZjUEkEREREVmNQSQRERERWe1nN4TTFZUYOMBVTupkrtegsqAKCndv9HaQ0zooXfUplP1bCTcvFyjlNGo/OnU+EzRVJSj/ryM8BjtDIae1N8xDd4fbzWslZ6rksfblx2s/4ef3tq+6nyvaa+hud688dee1x2MkaW/Hycizv4s8Zj0pn3X6ILJ8x2IsKx2N+P8LRu8ucmJHpcnBpoXJ0ExPwGJ/ezmRLKLVQCPCBqWdPN0KOnUQefkwVkWlQPn7lZg9uh2HZ8xDrUwHXa0OCofWPQduN699e7lWHiO6uz3Y49Zrz2wfRF7KQ8rmD5F57nvxVQEo7BwxPCAEYU+4Q2kaoOlEga0R87sroTCmV+/Dspg0YEosYiY7y4mt7PJBJESmAqLAiJpYX2BoilOxKfkwjl2W3gWg7DMWCxbPgEeDY117NBlr/5KDcq2YuEcBN79QLAgbCQfT93q9Bsd2rMem3GpofpKOiTP8fz8PM3wd5QUMLNlm2aY5SMiXJ0z4z92IUB/DePn7Iigu8kHM6hC4dfSguCXX1Sj75D0kZZ7BBf0JZ49Hn3gJYZP7G2qRCjfj+Q1F0tjNnIOwYlkgnEToWL7jLSRk14hzVgHXifMQM929rqZMlR6PaHGR8eeosbjdimqb5TPxvis/S8J7GSW4IJ17Ym8d+vli5qzpGNbTvI5Pd0UN3T1doVTWpxvOI29EbZ0FDzmttbV4Xp5JRXT8QVxAI/tlSR5q6Vww0pxB5pb3kHJcHBcx2di6OlUespLm5D5s25SGgisNPqem8tqIWdg+29sw/s1hrF2RIl4rjruDO8IjF8LP+FWvKUJSdBIUs1ZhxmA57TZ06gs2ojYi5TOb1flqChMRGZOIjG8cROAYjMWzghHw0I8o2LsGryzbB9V1eUHJ8WTMXbIC2Sp5+g5RfZGDMvTHGN/6AFJXnIhX1x5E5f+MxUuzwrE4bAI8ag8jITYZ5SbvQVruT5tzoPrlBP1yLz3eH6ockbalSIQlRhqUbYnHqlwNPB4PEcckBMG/rEXG5ngkFdYvZdk2a3Dh3+KPY3/4+400G9weNCwhcXvEB0pNDnKL5YS7lg5l219HQkYVFL7S+RaOcF+lON9W4NUdpwyLPOh+07Hy9/OEqxRPieHn0jKXDiMluytCV2zE9uix0B1IQ76xEuKbNLyX7oDZC24/gLSZ69XIfCsGsXtLoOszEqFh4tyb4gmnizlYFR1ldl6JKzNkL4/C3B0l8vQdcr0IubnfQzlCnKuNBWXiPWUkSgFkYyzJQxacC3pVyHhjBZJOKuE/fR6iFpisq9hw8SbpPHnICroa5G6Iwit/3odj+gsXc7XVNeJ/RwxrmN8G1QfnZRkpKPOah+1bV2L2Q6eQtN/42WhwbHsSyvzm2ySAJKK2Y5sgUluE1O15UCnF1enKWMyeOgHDfCcgOCoB78z0hqJKFMafVcvLaqC5In1hX4PmO7U83sB1HTS1Yl6tBjrT4NOEVMOiX6bhF5q0fuPrNIZ1NK4GxwrFPvV0h1tdhKDDsaw81PYYi8WLguHnOxLDxgRj9jRP4Eoh8uvKI1E47xLLOU5AlLyc39SFiJroiNr83cg2dqep2oek/O8xbPofsWDqaHFMRiNg0XwEO36PzAN5crBp6TavQSe9134TEDoz3Gzw62dYQs/dHSPEn+yiOxw4tLbaI9gnBSajZyHuBel8G4kxL8QiTvoMstOQKwWC/cbedKxCfR2gEqfcoxPkwPDf/0GlKPyceojx/v3hIT4Vzfdi/PoZpK/NQu8XX8DwdtT6qvrsPSSd08FtSixWRIfDf4w49ybPQsyaaMxwFufV9mSU6fOE1GxYq6+509f8i7yiaySrGfKIGDSNzRTk196cj6T1y68z5tdGggu9kiJki/0YMchdTjCn+jwRqZdc4D+ikRYIS/KQJeeC5BsRzIpYx+OpRZgx0RMeXtK6whGgFOvKNckvnSUPWeP4biRW9MKMqOVY7CWnmfjxRynTuCCwYX4bZ+xvVQPVRaC3oxRUKvFQf2dx7hjOKU3O+1h7YRwWTe2vnyaijsMmQaQu/wgyxfeBf9gseDQocJV+MzBDBDnl2Tn6mgbV/hVyzUgNUv8chbnLD8KsQvJKEZL+8DLmLhHzlizB3D8kosy0/KrJQWLky4hYKM0Xw7yXEZtcIgdk8vqXrEDKjnhEvCwtIwpVeZ65KlyQgr2HXOBkSBAUGP7KRmxfMQOuN9WYKNDtPnn0kiiMRPzp5O1t1o+y92Mj4SreV/5x6apc7EvBv3DhHm8EjpNqOqVCVwS36I/Jy8U2osbKzWwWbhMXoboEuPXpJRfaTQTYXVzgKspi3dkq8+N6tzlXof9c/bxEsG2i90Cp0DqDMtMKqDpqZO/NgUYE/0GPyieq+Pw9xLlQelp8PqWncOweRzwgAsoLH7+Pg/1CMcO3HUWQ4n19mS1OPOcgvNSwy4fCBQHTR0OpKcLhfCkgLEHKkjUiOBOjxVLNfxRSjuuXrFP5mTGPiOHlJUgwXujpaVD5schL80QelPNihFhf7jfybP36RfqWJKTI+XXVftPX11N9XSXOe2e4PiQnmLp8GEl7quD6hAjm+shpJizKQ5aeCwqFVAHdKKXS5HPuLHnIGr98Cn9+eyH8BzaeH2qkmkhnF3E5Jo6bdIF/0wWFI3o/1BWVZyrEPLX4TKoNAaUmBzuSazFjThCc2HWAqMOxSRBZWVEh/vfE4CGGaXP28PAUXxaXz6CyVgRek2Oxfa7UR8YZoctEQaDvl1avMrsID8x8E1veXYn4ME8oa/Ow9mNjKVCNzDXJyNa546W4d7H9vXexIswd32Wtx6ZMtbyMpBrZp52xIDYBG1aGNN7v61I1KsUfV2cRlDVGXwNTg8qjqdi0qwQOQ6dijPFC+eJF/WuHDWxw5dzHBW7iT7koNCUXL4gv1p6iNPpyM6LniMBXKojF32UmQa+Z5rYp72+t1G1ArENfqM+Jwtr0Mw3W5Qyn3uLPpYsinL2L/U8vEbCLYO8/pp+7OD7/MbzrC/9uJKA5noaUc8CjkwPrg3+HsQh9xhkFq8Tns7YIHr+fjuEVyUjIdcHsMG/z/nR3Wm0VTl8WeWiou1meqTPYUIN2rOKM+N8boVtjESrFmlK/tK31/WYNipB5bizi1qzEluULEeyiQ9nupLpaO12hOAYZZ9DbfyHe2Shd5CxEkP0pvLfCvFsHjpdANW4hVqxMwOLHGwS2shpx7gK94HTTTquRuzkFx3oG3hwUyyzKQ5aeCz3HInhEV/E+VyPlwCkR0OQhY3UiMnQumPG4aS1pJ8lD1ujhaN7X24zc1UZbhMQlcwwX+PPmIHLVPlSafDm5TRUXCt/uxCvzxAXNjxPw0hMOyF27EzXiAsK/kQsIImr/bFMTqW//UzR9Z2sX6bZ2uZmwBQ+Mm4HJgx2hUCrRe0wwAnuKV351xlAjUHoQqdVdETBzHvz6KMR6FXAaMwthQ0XB+UUOjK1WUuAa9GI4hrnYQ9nUXYBSM59Qd2NPQ/p+m68hdvNBlDmMxsxnHq7vF3f9Gppo/DNRDZVU9XppH1bt0sB/wZsioI3G4kccUCmC3lVmtT6y5rZp5wKvgc5wfMgXL70mguP4hQj9lU7f72tHjnkYqZA+1Z+uGSbuVs6j4T8QKNu1DqmFVfrm1Au5iVi1u6qJ2qZGaiFlTv7zEC8FShsTED6iGkmbCzEiTFx8tKsIUvhe5CHxx8G01syUyGfSezc2EzbPEzNmjkZv6eY2R3dMDpQu7M6gXLoeFMcq/0ARNP2CsWC6OxyklfYQy4ROgNOVHJi2/GJoMGZPFkGtg8hrTeV/ObM0zGuanCQknnZEcHhTtVAW5iGLzwUlPJ4Khr/Df5Cxcw1i4xORchIY/kQwRjQIcDtFHrKZn6P3r/rD1eEh+M2MFp/Rm4iZ4o4fS9OwbIvIc/JSUHoiWFz8bxEXNBuig6HMWofEH8QFxBONX0AQUftnkyBSoeyq/9tU/0Up6BJLWbS1hgWk/stcVnvua/GF9D2yt0chMtI4xGCHKAjwzUWTjvlKNFXO1ukqlhF/mtxnn1n6ms4N8ZGY4Viov2khpVSeJxfWzROBs7TQT44Ienkh/EVgrHRwwbCZkQiVmve/OHpzU1lz23TwxOSoWES9MAFuUnDc0x3+i+Zjcg/gy4OHTQJo8Z6kAPme9vc8Ktuyh9+CeZjcsxrpG+L1zamxH6sR8EKgvlbKrHlS0lgt5E10KEtORP7QcMwYVI3Md+L051jsO4fNbwy7U1o6Z+WLG4Wi5bNTOjnNgj6z0+VrQzD5zWdYVpfPxLD+ML4TyZXfmNTP2YkgVB5tSqPfD5o8pOwsgXJMCCY32RXO0jxk4bmgfwJEMvIdAxGzQm7JmOmJmvQ1ePUD8/4PnSMP2Yo9PJ6JRFxMCMYMdhGfkSPcJi/UPyJJd/wwcqUuFQ2Jz+K9dGDGS4H4eUEyEvTnWDxSj1tyAURE7YVNgkjXAQPE/ydRagx4zKhRViIKHeVDcO0pJ90We4yYOBWh0+qHmS+EY/GL4yC1QFnMwV7fJFhZfdEw3ZguoqDt2R9j5j6DMSJ4ret838vQfFb+dYPaxGpDk7PbQ1JfLEf0/h8p0QVuZoWk2K7UcehSdeNNZU1tszFd+mOwdOhF5PCjIUWQa2969tL3T7qrSTUby97FljVSt4WV2LJyIfy6q8XFRFf07mX6jL+mayFNaQrfx6bjPljwvCcu7F6HlB9GY1HMS/BTpWD1J+3g4cMigBooLhoqS0rMLhrqlJ6C9AQoj36NdT68BS6+ZvksdHooFswKR7CXdfeqO+ifQ3YRKpOrpsrdHyJb0xVOtTlI2paoH9ILpXdVhX1iPKNYapq2Ig9ZcC6U7z+A8p88EbYgEG49RHQqtWT4hSPUrytqsw+ioK4fXyfKQ63I1V3+cpJbfepITxh4bx+UU+fDv+th7Nh6Cq4iCP3Dk47IXPu+yedARO2dbWoiR/ji0XtEwLO7waN8BE1hClLPAb3HjNX3F7wdDqJwVIqA4EeHh/V3YBoHt/6/hJtXfysfwzIAbgPFn69NO8+fQvpScUW8yXjntOzajyZBmtDTEyNE6VL5peFmISNV3lGUi2JnxFBD0eOq7zNZhXKpi5rR9TMoF8fD2And0m3q8hP1V+oZDdZVKtUY3a9EN0OKSKsSgbEoU3/Vv/F+c3eLK9INVlFI2HMGiu7GbgsaHMsqhEbpgxEmXdx04hxssRZSU4TUHSfhN0t6NqAIPr75Hq6DPdHboT+Giw/7Qk176B0n9uURcdac+wxpZo/yEaSCebcIlO/xxNjHTAPoW/EQ3KTyX62Ao0k+G+bpjl7uQ+AhdSWxgpO4yFSKwKzyazlBkJ7J6SQCudqvT+HYScNQdknq71KLSjF+usZw9luUhyw8F3Q6af06/NhoTa4GP/4gj3aWPGQruiKkyMffVOUp6ctJCbkiuo7qs0Sk3BeMmdLD3L+pQtlPLvDycYTTo94Y8VMNvrssL0hE7Z5NgkjYjUTYbG8oq9IQ/YcVSD2Qh2NHc5C5KQ6vbCiCxiUIi35n8tM6+ubgauTuy8Gx49X6JjiLDJ6AYLGaL3euR2ZpTV3fp4To1/DqzkZvx22GPdwGOwOXTqG8rlrHHR6DdVCJgC1h20GUV4n1lx5EUlwyvkRX/TMGDVwwZrInFDUHsXrDQVReqkFldiLWpVdDMXAC/OS3qhwXhIDuNUh9dw0ypL5aVUXIWL0OqSIeeTRwrFxAWbZNxVBvDNNWIXX9ZvHe69eVflksEzBK38ypd8pQG+UnCvy7WndvePVVo+zTdVj7cR7KS0uQve0trC38HsOmBJk8j7Aa2bvFOdhsLWTD59TZ4wERndReMQRq0s0dNzWP3yG9fzcPoS7igm3DUsRu2ofcoyKvHUjBqj/EIalKnAuzX8DwumZquTm49AgyxHKVFhfO9hgRMBIO4vx+b1seLkiP7xH5JHPD6+JCZj1yrS3kReDpJ75p8kVwaOQWkoAVK8yHPwRIfeM8MVuML/A3XGJZlIcsPBc8/EaLC81TSFyVgmNnpO8PEcB8vAZrc74X+WsU6ipYO0seshWFJ7wG6FD22XtITD8lzhfDcV2VqYaDXyBGmF7dN3z2quMv0Fvkv++krFYt3bB4c9B5x0gP9U9fg1denIPnNzXxowVE7Z30QwDSOdxwsNE53eV1QfqJp188+ICcdGsUvYZj7K+6QPWvAvw9vwC5BcdwrFqL/qOeR9Q88WVv2r3IeQD6nD+KTFGw5Ry/Bq/AYXjwSjmy/y4KmUHjMMa9u7zgFZz9+2EcE4HW4/87EN3QHf19B+P+01lISctA+v6DyCxSodvwZ/Ha8964TxRUmq8O44BYjdf/jkN/42qa0K3nz3Am8x84+8AYPDbAUPI+6OkH9yslOHQkD5lZYv25ZTh/zRm/nfsqnh5a34lM8ZC4au56Bl/+/R/428FDyCq+gJ97BOH/zZuA/zFW1NzjCE+/frhedBDp4n2kHy5ASa0Sj05bgtnjDIWkxKJt3tsLXsPux4V/HsZnhw7jb/p1OSLgxSV4bvj9hmWE8k+3I/PyI3guTBxT21witFMK9B7uhQe/LsCBI18iKzcPRRfuhffTS7BwQn2/CV3hX7HqUDWGT5+H8fqnjN9Mk7MZcUVeiJn3KLrJx8zpf7rg6Pb3kZK5H7kX+uC5mb+DawvnU0tskc9wj8gDox9F/+9EoJRXgC/zi5B7ohLfKj3x3PxX8ORQ051UwuWhn1D+jyPIyivCt45j4NffDjX5f0POhV54LGh4fU3bxQLsyatG/5GT4NVLfDE4e2OU83fI/SwNu/cdxN8yv0TZfx/C00vEcdTXRFbjWFoBzvYejidHNPGEA6N7eqHb5b8jM/8GPB9v+rw05N37zffLojxk2bkAp2EY66pF5T8PYY/Is3/b/w/knFHDRXxHvRbxKO6X96vz5KFbc/P50wVO3l74n3NfIj1bfIbScS1Xw3n084j+vTeUxmMoPXv1rY/Q5bkl+G0/OS926wOnC5/gnR2f41B2GX7yexahj/YUa7w9t53XLuUg8fVV+EupGj/99BN+suQ8J2qHaos+R0bZzzHMbwg8Xfqgv3H41VB49bOu/bYhKZ+1zm9nSw/8/kEUYS39PqpOB909iqbvkG6OfhvXoFDaS49/u2UXdr6G6KKHG/ntbOmZdN9DpzD/ybibSM9svPI9cF8zd6dKLDomFm5TWpdOAWX3BsvIv/uL9v77xLYm/4xmi+ebtfTrvf1zzMj2P8Umny8tnXuCTquDwu5W3oS8jS7inGx4vlnDFuemJXnI0nNBesi67t6bl+usechW9N+H4lwz/UlbC+h/nhO3eY6ZuN28Jv00aKImCPNnOyP75c3INP35RqIORLXnNUR+6tIqP3Mr5bPWCSI7EjkItFWgcEdZGrzTHdGp85lECtx+sl2g0CqYh+4Kt5vXamtq4KD/dZ0iJL3IIJI6LumCKOF8EFYsC8QD0sWaouVKB0tJ+YyNNdLd0A53QQApsVOy8KP2S1yotesAUsI8RIIhgCTq6Cz7IYDbwSCSiIiI6K5j4Q8B3AYGkURERER3nVv4IQArMYgkIiIi6iSa/CGAW8AgkoiIiOhuY+UPAdwKBpFEREREdxtrfgjgFjGIJCIiIrrrKOAR8Qe8NATI3bsG0UvikZBxBg+MDscbz3vqf9DsdvE5kURthPmMqG0wrxE1cIs/BNAcPieSiIiI6G6nfya27QJIIwaRRERERGQ1BpFEREREZDUGkURERERkNQaRRERERGQ1BpFEREREZDUGkURERERkNQaRRERERGQ1BpFEREREZDUGkURERERkNQaRRERERGQ1BpFEREREZDUGkURERERkNQaRRERERGS1n90QTldUypNERERERC2rCyIHDnCVk4ioNTCfEbUN5jWi1iflMzZnExEREZHVGEQSERERkdUYRBIRERGR1RhEEhEREZHVGEQSERERkdUYRBIRERGR1RhEEhEREZHVGEQSERERkdUYRBIRERGR1RhEEhEREZHVGEQSERERkdVaJYjU5G5GZPRm5Fbr5BQiIiIiupvYPoi8fBibkmsQMG8W/JwVciIRERER3U1sH0Taj8Xi9dHw7yNP29p1HTS1Guiuy9NERERE1OZ+dkM4XVGJgQNc5aTbo8pNQcZlb8x4wh2tUg9ZvQ/LYo7Cb1ks/J3lNLolmuI0pFb0R/BTnlDKaQ1ZsgxZxhb57EJWIjIr5Ak9B7iNnwi//vbytOxSHlLf/wxf1mjg2NcXgc8FY5ijPM9ILJP+4QFkn68VqxmAgMlPwd+r4UJEHY9NyrTLRUjfXYTv5EkjN/9w+PWTJ4g6MSmf2bgmshrH/nYYmbsP4phWTup0qpEZMwdJhfJkO3b16yJkFlbhqjzdGEuWobZTezIPmf9WwmvoUP3g6lCNjBVReGVTETTyMvhGutBKxLH7ffHUtCB4XT+KtdHxyKyW5wu64mREimXyu/sidNpUPDVIg4z1r2FZuslCRJ3ZWXEh9s+zNwWRRFTPtkFkdRFyq+3h1KMEeYWd7aaaIiS9OAfPvxiHJFEOZ24Q4zH7oJLnEtnMg+4Y5jtSP4yZOg9xkRPQLX83squkmToU7E5D5ZAQRM0NhJ/vaAQsjsXsIVVI2ZUn5krUyM/IgUosEzNzgn49flMXIi7EHeV7k5Bbq1+IqFPTXBYZoecozJgZjlCTgbWQRPVsGkSq8o6ifOATCB9hj4LiEjnVRG0JUmNfRoQ+2JqDubEpKLulAusaKvevR/Qcw3oiItcj9xt5llHVQWyKfFk/37CtzShouIzN9kfijdCtG7F9ayxCnQH/uWJ8WSCc9PN0uHCgfn+fnxOFxJwa/RwDQ+1l4p7DWLukfplNplVHltJVIfudqLr3FDEvDonZrF26q/XvDw/UQCVdsWiPIq8YGPPr0SbdD5QY/mtvoLgIZfq+xD9C84P4o/i5WZcT5SMzEDUrEG73yQlEndhVjQZwsscD8jQR3cyGQaQaZcXVGDbCGx5Dh0JRmCcXWLLrp5ASux7ZjtMRv14EWOtFsOV4FAmxySi3+iaZGhRfcsdLK9/F9nejEf5QBd5bYbIebRGSVqSiZsQ8bHjPuK2TWLsiBZXyIjbdH6mfphy0GWsiTdVmrkHsrlr4LUgQQea7eCdiKMrfj0dKqbyALDurBCMWrsT2jQmIGeeAgg/fvmmZ5ulQtm01kr7zRcxK8Z7eexfx0x1RvONtpJ6WF6G7z5kzKENXKKTg77Ja5A5n9O5tmFWntwtccdEQaMIRfpO94VCYhNj386Aydj2xc4aHryec7ORpok6s5pL4Ir94EKsWGioj5i4V5UUVH1tHZMp2QeTlo8g95wyvIfaA+8MYc18R8ovleYLuy4PI0HgibNZoQyElCiy/Wc/gUU0ODn5pbcZ0RlDIBLgqFYDSBX4zgzH8Sg5yjZWf93oi+M2ViJrqDmUXMS1t67diu1dOoVwO8Gy2P3U3+oigzaQmst4p7Nt7Bm7T5mPyYOnmBwUcfEIQPhrIzC4yLCJz8w+Gn4tSLGIPt+nzEdrve2Tnn5LnWkIBt5DX8c7SYLg6iMkuCjiNCcSEHt+j7CRrI+8a357CsaN5huFAMmJXHMTVEaEIGizPt4DSZxbeWjAWDiWJiJxnqKnPLDatHSfq3JQOjqJsGIAxL/8JG2JnIcixAolvbkZBXedjIrJZEFmbfxRlzr4YJgVQXTzhJQq0XJMm7cqKCqBnfzxkWsth54KBPYGK8/rOXLdOOUC/nsqv5UBJBE9K/Af5n6xHQmQUIqVh/WGzDtK22p+yPWkoHxHU9J3i1WdQrlFAU/oxkrYl1g3ZX4tA9nx1M30mRSA50B6as2dgTQu7oivw3T9TsWmZ/L4j38M+9nG7u1QdRdIucT6JYV/pvRgT8Sbeme1t9d3zSq9gLF75LraIAjK410WkrH0Nscmn5H6TRJ2b69Q3sSIuBH79HaF08UbAgmfwKEpwOFctL0FENgoi1SgtFIFXdRoi5WbdhHxAU/QvlMtL6CmAn8ujBvfq02xOW4Kk2Hhk1D6MGZF/RFyMGCLGomELn632x61PL3msKV3h6m64m9Y4jAh8Boune7fc30aU6D/Koy3ToWz764jNqIXXs5GG9x0TjsAmntrS7SFv+Pu4oJs83RhLlqE25hWKFSsS9EPUKzPE52PyAXdVimBSA6k7lxmRUCvmKMVFhjkFFKKA9J8di3dmeUOVlYrsS/IsIqonVzJobspcRJ2XbYLI2iLknrbH5FcSsGGlPMQHY7imEPlyn77eUqD1n/9AZdZPshqq/wC9HG/z2XTaCpwTBZ9rH7k68MQRZF7xRvDzo+Ha0x5KBzHcbx4d2nJ/yr+5KI9JLuKCacuxkzNc71HjqnJI3R21dcNQ52ZiVjXKT6uh+KWLfHOOJUqQn/s9/J4MN1w9S+/bwaHJbSi9ghDawvMfLVmG2hEHd3g5q5ErXdSZuFD4L6icPeEmdXPQ5mCTuNDblGNe56gU+cdJukGHrdrU2V3JQWJkPDLNspG4OJP6D3e51zBJRLYJIjX5R3FMKdWwyQGbNPT0xYiB9X36lI8Fwv8ekTF3lEAjBW7X1SjbsRMZ94xE4GMNHpTcomqk7cqBSioDdWocez8VXypHw8/LMBf328MBJ1F81NDsoKs5hfSt++pvqhFstT+OUuCan4cy/ZR0l/VmZOrHZV284e/viILkNUg/KTeD6GpwbFscEj4zL+grC3NQqW961kGVnYTUc13h7+epn2cZByi7A8WFeaiVjo22BuU7E5HaVM1STR4yD5ypf75gYyxZhtoRZ/gFeeO7/UlIL5XONx1qS1ORuL8GjwaONVyQ2PlirF9XfLlrPTL1ywjaauTuzkJldx+McDckEXVa3YfCw7EKqbsPG8oZ6Ts5cx/2XRb5y7Tmn6iTs8Ev1uhQ8M7L2NZjITaEmZc+mswVmJvRH/Ergg1NyTUiaEvYiezLhhoQRQ9vzI6aheHW5En9jSxnMGKKBmnpIrj5SazHrj+CF85DwEBjfZkGlR+vR8J+w3wonBHwxACU7y2E2+JVmGG8AcEW+yOUbTI030v858ai9+44XHhqI0J9DGnS/pQnr8Cq7GrD/ghOg4Mwf3YgXPW7LAWfcci43x3Kc6dQKe3OPfYYPn0RFlj5szya06nYtMb4sHcFXEcHwqMiDdm/uvnzufDxa4je74LF62dhWBPVlZYsQ5axxa9o6M81zML22d5ySmMMj5RavesUVNL5Jp1L0+ZjwUQXw2yJdNH04WqsNTknlX1GY/aCkJt/2Yaog7HJL9ZoziBjzRqkntGJHCVI5cgL8zDDlxmESCLlM5v/7KFFNGoRVnWFUrq7+nZIv6P9vSj8ujexHmn+FR2UDi00xtpqf1okvoxqpR22h8JsU4YgMveRWMRMdobuikbft00h3Vl+i3RX1IBdw+3QndTm+Ux/vumgaOH857lCdxub5jWd1IytaLqcIeqkpHxmu0f8WEMEUTYJ2KS7sJvL2NL8lgJIia32p0UKUaC3XFgrut9eAClRdGdQQNL51vL5z3OFqBkKJQNIoibcmSCyk5Ka959/cUWb/KxcW26LiIiIOp8705zdWdWUQHq+uNf/esLhNmsaW9SW2yKLMJ8RtQ3mNaLWd+easzsrR0+MmdhGQV1bbouIiIg6HQaRRERERGQ1BpFEREREZDUGkURERERkNQaRRERERGQ1BpFEREREZDUGkURERERkNQaRRERERGQ1BpFEREREZDUGkURERERktbqfPSQiIiIishR/O5uojTCfEbUN5jWi1sffziYiIiKiW8IgkoiIiIisxiCSiIiIiKzGIJKIiIiIrMYgkoiIiIisxiCSiIiIiKzGIJKIiIiIrMYgkoiIiIisxiCSiIiIiKzGIJKIiIiIrMYgkoiIiIisxiCSiIiIiKzGIJKIiIiIrMYgkoiIiIis9rMbwumKSgwc4ConWasKudsOoFyeutkA+M8ci97yVOdVjeyE91D6yEuYPc5ZTrsF5w4jKRM8ph3Q7eUzgwtZiciskCf0HOA2fiL8+tvL07JLeUh9/zN8WaOBY19fBD4XjGGO8jwjsUz6hweQfb5WrGYAAiY/BX+vhgsRdTy2yGu4XIT03UX4Tp40cvMPh18/eYKoE5PymQ1qIh3Qe+hQeMnDA//OQ+a/lXXTXkNd0E1e0qYKN+P5F+dgWXq1nNBQCVIjo5B6XJ5sJWWb5rSwH/UU9ynwczulPHWLvj2FzNxTEMU+dUK1J83zl6tDNTJWROGVTUXQyMvgm31YFpOIY/f74qlpQfC6fhRro+ORaXKK6oqTESmWye/ui9BpU/HUIA0y1r9m0XlM1CmcFRdi/zx7UxBJRPVsEETaw9V3JIbJg9uDIulB97rpYb79RZhpW6r0ODy/AYjaGgu/f4pxUYDeTAfNZTU0OnmylXjM3ojtW2fBdW9T+2HkDL9XohHu16DGiMhaJvlrzNR5iIucgG75u5FdJc3UoWB3GiqHhCBqbiD8fEcjYHEsZg+pQsquPDFXokZ+Rg5UYpmYmRP06/GbuhBxIe4o35uEXF6hEInyQ2SEnqMwY2Y4Qk0G1kIS1Wu7PpHV+7DsxTiz2hDzNDWyl81BxFpjQWckCsW1c/D8soN1tW9Ok2P1gZuHCMz8l4kgbra3PEfQr1OqHdyMTDGZucFQUygNSYWGRSxyPBlzX4xH9mV5WlZ7IB7PL03FBXnawBuhW033owhJ8vb0Aa+8fUtrLIms0r+/yAs1UKnEuPYo8oqBMb8ejfo6byWG/1qcm8VFKLsuTf8IzQ/ij+LnUEiTMuUjMxA1KxBu98kJRJ3YVY1GFDb2eECeJqKbtaMba+zh5+8pCroDyDUN3C4fxkFRKD7qP7a+RrMuUGwkMHOagMUrE7BhZQgeFZOPhknjhmHGUMMiFhk6FkGOVcjNV8sJkmrkH66Ch/9Ek/6IhoCxLlCM2QepLJdqHnuLhZwej5S3vxDBPfUziGzrzBmUoSsUUvB3WS3CScO5Z6a3C1xx0RBowhF+k73hUJiE2PfzoNLqlwDsnOHh6wknO3maqBOruSTKlYsHsWrhy/rv9rlL1yO7qpWbtog6mHZ1d7bCN1AfuGVk6tvl9FRf5KDMcQKC/OQ6EymAjEmD61ypGbm+KbkukOyigNLBXgxKfV/Mbt2lccOgMK12aZGLCGpdUJZ5oL7WsSoHmdX9McbX2CQtBZCbgbp92YiovmmIfDEPI7bGwl+6f8ZOKW/fAcp2dbSpw/r2FI4dzTMMB5IRu+Igro4IRdBgeb4FlD6z8NYCcWFWkojIeaKAjN2MzOIaeS4RKR0cxQXVAIx5+U/YEDtLlE0VSHxzMwrqOh8TUfsKa7qIAE0EbheyD6Nc3+xWhYKcarOaP1XeUZSPmIVQHzkB3giY4ozyfxbJNYC24zBmIh799igKzhimLxw5CpXXOIyQq0RV6WnIdA5CQN2+AB5PBsENF3GBrdbUWqqOImnXx/phX+m9GBPxJt6Z7W3SfG0ZpVcwFq98F1tEARnc6yJS1r6G2ORTDbqTEHVOrlPfxIq4EPj1d4TSRZQzC57BoyjB4VzT1imizq3d1Y05jAmEP3Jw8Kgoyo4fRtq3npgwpv5mlJpvRHSWb7gz2zhE7m2liM1uJCb46bDvcAlwvQTZOTr4jxtZ149Mvy99neEkT+s5O8MV1bhg3mnSdh50h7+fu81vVqIOxCsUK1Yk6IeoV2bA38fksTxdlSKY1EDqzmVGJNSKOcqu8nQdBRSigPSfHYt3ZnlDlZWK7EvyLCKqZ+eCgT2lrMSqSCKjNg4ir0Gnr2Fshp0o0MY44svMfcjMyoHisQkYbtJHy7GPMzBiVl3zcd2wLNA8mLMRtwmj8UDuERwr+ReylaMxxqRfpX5fzleb14BWV6OysT5pttJvLEL5jEhqioM7vJzVyC2s7xIiuVD4L6icPeEmXX1oc7BJXHxtEhdFppTifHaSbtBhqzZ1dldykBgZD5OeVYK4OJP6D3e51zBJRG0YRDq7w6N7DbKzTxkCSW01cnc1/pDy3v5j4XFuH5KKXRA82V1ONXAa6Qu3/M0W3GntCCdHIP9oHjTS9q7roDPeQGANl4kIeKgIazflwNXshhp5X6rTkGGyL2V70lDu7IthxueJa8UXT61aDLXQ/AToNOKvflrTckDdGM0ZZKfnofZWXkudgDP8grzx3f4kpJdKzW461JamInF/DR4NHGu40LLzxVi/rvhy13pk6pcRpPy4OwuV3X0wwjzLEXU+3YfCw7EKqbsPQ6W/1tJBlbkP+y6L/GVa80/UydngF2vMSQ/fTsAs88fuyDTHU5Cw4TAqpUx5jz3G/H4i8L4IzpbJN6GYOLZhDtZeD8eGBfXNx3Xkm2tMA1C3KbGImWy+Ek1hImI35UElgjdJ74BIxE/tb5iwgi53Pea+D8xeO8+sVlSv4b5ItaQm7116xE/jze3OCG3kfbdEvy/bqhEc9yYC+siJ1CHYIp81l7/q6XDhwHqs3nXKcO6LvDZ82nwsmOhimC25rkbZh6uxNrtaf3EjUfYZjdkLQm7+ZRuiDsYmZZq4YM9YswapZ3SGfsIKZwS8MA8zfJlBiCRSPrN5ENkykSFrRZbsroSii5zUkDYPmxZ8iAcWrLLusTyNkrb3vSghrb07m8i22jafSQx5TeHQ/C03uitqwI75g+4eNs1rOqkZWwFld2YQIlNSPrsDN9Yo9IVakwHkdTWOvf8hCgZMQWBzAaT8rMiWH94tbY8FJHVGhrzWEkV35g+iJimUDCCJmtC+7s4uTkTES1FYe/ohhIeYPFyciIiIiNqVO9Cc3QzpJpQfpJqRZmoqiTqodpPPiO5yzGtEre8ONWc3Q//rLgwgiYiIiNq79hVEEhEREVGHwCCSiIiIiKzGIJKIiIiIrMYgkoiIiIisxiCSiIiIiKzGIJKIiIiIrMYgkoiIiIisxiCSiIiIiKzGIJKIiIiIrFb3s4dERERERJZqX7+dTXQXYz4jahvMa0Str/39djYRERERdQgMIomIiIjIagwiiYiIiMhqDCKJiIiIyGoMIomIiIjIagwiiYiIiMhqDCKJiIiIyGoMIomIiIjIagwiiYiIiMhqDCKJiIiIyGoMIomIiIjIagwiiYiIiMhqDCKJiIiIyGp3Noi8roOmVgPddXn6bmXJ++wsx4KIiIjuCl1eF769XItfPPiAnHSLLuUhfetfsDX1U+QUVaGL4wC4OtrJM5twaT8Slu7CT4+OQ//uctrdyJL32QmOha44GW9sPQ2XRwbjwXvlxE7k9vNZFXK3peKothcGu9SfJJriNKT8rRpOPv1wv5i+kJWIPZlFOFbUYDinwECPnlAYXgbUiDy7xco8S9QB2KRMM9KpUZnzJS4+0A9O98lpRKTPZ7apiSxNQWTMhzjXZyzCQ0IRMECN1D+/jqRinbwAkaDoCqUIYRSdMIC0jRqU54rA7/1UFGjlJOHq10XIzD2FWnm69mQeMv+thNfQoebDQMf6APKbfVgWnYj87r4InTZVn2fTV8VgbZZaXoCoM9Oh9kwOUhOiEDEnCrE7snDhe3kWEdWxQRCpQ8GBw7jqF44FU0fDw8sTflMXYvaI75GZcQQaeSkixeBgRMUEwbWLnEC35qcSpO45I0804UF3DPMdaT4MdZaDSDVyk9Nw4eFwRM2coJ8n5dk/TP4FCnanoVy/DFFnVoK0FWmo7BOEmMWBcJNTicicTWoiH/pfEUA+7i5PGTj0sAd+0IgQ00RNDhIjX8bzL87B87OisHZ/lfl8SdVBbDIuI4a5sZtR8I08TxR+2cvmIGJtXoPXiUB2rVh+2cG62hiLNLstWa0osGNfRkTdMikos2ojjbhejdw/L0ZEnCjIGxwA3dmDWLvEsK3nxRVwYk6NPEfW0v5U78OyFzcj9/Q+8/XkNqhhavhZZKYh8cU4ZFbL8y3V4nqKkCTvq2HYjDJ5jpn29r7aMSdnZ3yXuQ8Ft3qFVlskjmNXjBk3Eko5SeLkL4LKkIfhYFLLSdQ5eSN0XQIWh4yG64N19fdE1IANgkgFnIaOhEcfk4x2/QwKitTwGDUaDnKSlJb+52QU/08Q4t59F9vXzMeI2pOolGfraUXAsSIVNSPmYcN7G7F9fSxCHU9i7YoUeTl7+Pl7AsUHkHtZn2Bw+TAOFgOP+o+t315LWtyWcP0UUmLXI9txOuLXG5c5ioTYZJTf6g0wUgC5+m0kXh2NmMgg9Db7fqpGamYtAl8Vx2f9m4gZ54DcvyQj1xhMWbw/4r3t0piv5/2k+iZQaT3LGnwWpVnIlmdbzKL1eGLGygRskIYw8dk1pr29r3bO4ZFgzHioBDs+PiWnWOk/NbgocorTg/K0kdIFHr6ecGK3SCKALSZELbJNn0gzGpRtWYdUTEDo/9rLacKpI9hX44LgmRPgqhSRkyiw/KZNNG8muNcTwW+uRNRUdyilDGznDL/fjobTlVMol2uSFL6BCHKsQkZmlSFBUH2RgzLHCQjys+KK0YJt6b48iAyNJ8JmiXSpYJWWmfUMHtXk4OCXt9Df0xhAfuuDqMhgcRzk9DrOmPFiMNwcxfuwc4Tbk2Mx/CexPxWGuZbvjyOCft9wPSUoPSnPPpWH7CstfBaWsGg9Cigc7KGUhu5imUa0u/fV7jlizFOjgS/SzC+mTOVvlmt+jYNJbex3/4FKHtW7fAbHjubJQwlUrIkkIiIL2DyIVKWvwaqTD+GlBcHobXIlp6qogKaHO9x6yAmN6aKAEv9B/ifrkRAZhUhpWH8Y38mz9br0xxh/F1zIPizXUlWhIKcaHv4T0Vu/gIUs2Fal2Gf07I+HTGtm7FwwsCdQcb4+iLWMBrlb38Z7IuAJCAuB200BZCPslOgmj0os3597oTC9ijauR67Vqz33dcufhQVstZ729r46hMFBmDHgDJL2lMgJDYyYhe1bN5oMsfB3lud1EcdRHtU7fxRJuz5G0s4krN2cimNNBaZEREQmbBpEao5uxrJ0YEbkQvj1kRNNKRTmhVdD2hIkxcYjo/ZhsY4/Ii5GDBFjbwoOHcYEwh85OHhUBxw/jLRvPTFhjEmtpyUs3Ja0wz+XRw3u1adZT41KrScmewHpmzaj7Fb7s9lgf368Lo5bS5+FBWy1Hr129L46Bnv4TZuAB3JSkdGwH29LevWCq7io0RjPwaEzsGJFAlZEBop0IiIiy9gsiNQUbsarW2swQQSQ/o0EkE4PuUBxqQpfN9dUduIIMq94I/j50XDtKTeB3t9ISGDnDf8xjvgycx8ys3KgeGwChpvWYlnCgm317tML+M9/oDLtl3e9Gqr/iHLY0VFOsJQjgueFI3jufATfV4RVK/aZr9cCttofiz4LC9hqPe3tfXUY/QMRPLQamflW3jXU0xMjHNXIzWvhDm8iIqJm2CaI/GYfVm0qgdv0cPj3vAZNrbpu0Bm7tHmOhn/3EuzYnAOVlKZT49ieA+aPE7nfHg44ieKjhjtudTWnkL51n/nNN7Le/mPhcW4fkopdEDzZ/M5wi1iwLeVjgfC/JweJO0qgkQKc62qU7diJjHtGIvAxK2s+jU2xXfpj8oIguH6ThtUfW1eI22x/LPksLGHRenTQGc+HK/qF8J1xWmM4Odrd++owlBj+1ITGu3HoNGb5sP74S1zg/8xIXD2wDpuy5bv/xfIXTpzBhXscoOxqSCIiImqOTYLIsvQ0lP+kQ8GHcZi7JMpsSDkuL9TFHTMiZ8DtXDIi50iPZ4nBPgcfeMiz9QYGYXFAL+S+H6W/GSDitRRc9RkNN9RC9a28jFGPCQj0ARReE+F3K33gLNmWnSdCY0LgVroZc18S+/xSFFaVumBBTDg8rK35NNUnEItne+sL8SQ5iLWIrfansc/ipwFwkmdbzKL1lCDFeD6IIFGafs9sWmhv76sjcQlC6IhGor7iZLN8qB+WH6y7oUbhFY43Zvng4oevGW68mbMEsRlAcOQs+Fn8iAMiIurMfnZDOF1RiYED2q43lO6KBuiqNL9JwpT0O9JXdFA6NHP3iTYPmxZ8iAcWrMKMoXLarbBkWxKNGhp0hVK667c9sNH+1H0WlamIjD+FgPho+PeUZ1rBVutpb+/Llto6n1lKd0UNncIeytu5MCJqR9prXiO6m0j5zOZ3Z1tC0b2ZAFIi3TndXFB3XY1j73+IggFTEHg7AaSkpW0ZKUUh214CSMlt7U81MpfFI71UbfgsrlUjNz0HKmdvDLMq0LLVeky0i/fVuSi6M4AkIiLr3ZGayNtSnKj/xRo4uCN8cRN3gVOLNMUpWPv+EZTJ/eSUfcZiweIZ8LCyKdNW67GV9rY/plg7QtQ2mNeIWp+UzzpeEKnVQPODBbWZZBlxPHX3iGN5u5WstlqPrbS3/RFYsBG1DeY1otYn5bM70px9W+yU+uZnBpA2Io6nTQItW63HVtrb/hAREd1lOl4QSURERER3HINIIiIiIrIag0giIiIishqDSCIiIiKyGoNIIiIiIrKabYPI4ymIjEy5i3+rmIiIiIgktg0idWqoLqtheMwzEREREd2tbPKwcVV6HCL3VstTprwRtXUWPOQpVO/Dspij8IsKBdLfQ0qpIeD0X7ARoV6GRVBbgtRVm5HxjU4/76ZfHNGvowr+US7I35SGglqRprDHmLA/ItzP3rCMpCYHiQk7kX1ZrOUeewyfPhrdPiyC67JY+DvLyxC1IT4AmahtMK8RtT4pn9nmF2v0vyJzDShOwtwdwEsrQ2GICe81/11qfQCYhko7ewwbH4TAR9yh+LYaykGecJJ+u/f6KaQsWYPcASGImTUaTqhG7ua38V6FD2JWhsBNesC4vI4L/Sdg8awguN1fi/I9m5GQ6YDZa+dhuOl6+gZj8dyxcJXWs2013it2QCiDSLpDWLARtQ3mNaLWJ+Uz2zRn639Fxh7K7tJPhCjwgDSuH0wCSBNuT/4RC6aOhpuLI1y95ABS0H15EBkaT4RJAaSUZucMv1nP4FFNDg5+adpI7oig3wfDzVFsz85RrG8shv9UgtKT8uxTeci+4oLgmRPgqhTLKF3gN20i3OTZRERERHR77sjd2b1/YdLsbKKyogLo2R8PyUGlnp0LBvYEKs5XyQmSe81/9lAEsd2kv9f1U6g99zU0Pdzh1sMwTURERES21f4e8aMAfi6PGtyrT7PGj9d14jUKa19GRERERBZqV0Fk7z69gP/8Byq5RlHvejVU/wF6OTrKCS1zesgFiktV+ForJxARERGRTdk2iHT6BXrjJPKPqg3TWg10pgFhC5SPBcL/nhwk7iiBRnrddTXKduxExj0jEfhY403gjfIcDf/uJdixOQcqqSulTo1jew408fxKndhGFOYu2Yxj0p3eRERERNQi2waRLoEI9VMge3MUnn9xDp5fEIeMSnmeJew8ERoTArfSzZj7knj9S1FYVeqCBTHh8DDtJ9mSLu6YETkDbueSETlHrGdODPb9NABO8mxz3+O7S2poaqtwQY59iYiIiKh5tnnET0M6DTQaNHl3tkU0IrBDVyilu6tvg+6K2JGuSigqUxEZfwoB8dHw7ynPNLqug+6aAgprAlUiK/GxI0Rtg3mNqPXZ7hE/DSmkR/7cRgApUdrfRgBZjcxl8UgvVUPRXQSQ16qRm54DlbM3hjUMICVdGEASERERWaP93Z1tE87wm9wfpZtjDM3q8+KQ9K0voiIDm2jSJiIiIiJrtE5zdnsi3dxzj1J64g/RHcUmNqK2wbxG1Pparzm7PbFjAElERERka3d/EElERERENscgkoiIiIisxiCSiIiIiKzGIJKIiIiIrMYgkoiIiIisxiCSiIiIiKzGIJKIiIiIrMYgkoiIiIisxiCSiIiIiKxW97OHRERERESWuvt/O5uonWA+I2obzGtEra9z/HY2EREREdkcg0giIiIishqDSCIiIiKyGoNIIiIiIrIag0giIiIishqDSCIiIiKyGoNIIiIiIrIag0giIiIishqDSCIiIiKyGoNIIiIiIrIag0giIiIishqDSCIiIiKyGoNIIiIiIrJa5w0ir+ugqdVAd12evsN0V9TQaOWJlkj7rtHJE61EI/antn7QNbs5ndj/Vt6fRlh1zIiIiMimurwufHu5Fr948AE5yXqa4jSk/C0HtQ94w7WHnFidh9Sdn+PrLgPg5mxnSLtSgtS3ViJDMxR+A7sb0pqgK07GG1tPw+WRwXjwXjnRli7tR8LSXfjp0XHo3/yutIFqZL0Rg13aERjj3sLOXK9BwYZlWPbB31Hb8xF49ZGPbUPaEqS8vhVnnR+Fu1MXOdFyZdsWInr7Qfxtv2HQuE6CVy95phmNWDYWcX/5O850HYpH2uxgWnHM2onbzWeSC1mJ2JNZhGNFxuEMNA/0hUuPBufBJZH/1m3F+3v3oahMDXu3wfgfpTzPSCyTvvUv2Jr6KQ4cPYsuDq7o79xwIaKOxxZ5DZeLkP7XfThal9cMg+ZBb7jc5qqJ7gZSPrNJTeTVr4uQmZuHlMMlcooo7L5IQ7pIy/9aI6cI3T0RPC8Iyv3vIeMbOa0piq5QQgHF7QSQx1MQGZmCcnmy49Oh8uPNONzrJbyz8iU4HVqH9JNN1QAq0O0+8f99CnnaOh6zN2L7VmmYBX857WZif3auQco9M/DndYswOH89EnNq5HnUGmpP5iHz30p4DR2qH1wdqpGxIgqvbBKFm7wMvtmHZTGJOHa/L56aFgSv60exNjoemdXyfEG6SIsUy+R390XotKl4apAGGetfw7J0k4WIOrOz4kLsn2fxnTxJRDezXXO2WJOu6F8o1zcPV+FY/lUoG6vUcByN2WtiEdBHnm6CYnAwomKC4Gp9JVo9nRqqy2oR6twtFHCdHo3FU/uLY9sfAVHRmDyoiSDRzh2TY6IR0F+ebhWG/Yl7wRvKLs7wj3oT4aMd5XnUah50xzDfkfphzNR5iIucgG75u5FdJc3UoWB3GiqHhCBqbiD8fEcjYHEsZg+pQsquPDkvqJGfkQOVWCZm5gT9evymLkRciDvK9yYht1a/EFGnprksMkLPUZgxMxyhJoNfP3kBIrJhENnTE8OVhcgvFeNnjiJT44Mxgw2z9Kr3YdmLcWa1ITenFSHpxTl4vm7YjDJ5jjVU6XGG128oElNFSGhmfbqzB7F2iTx/TpRlNWmFm/XrypW2E7Om7vWRG5KRaBzfZlIzZCFd1UFsiny5bl82mR0s4boaZclxmDvLsI2IeXFILVbLMw3KNhnmGYekQnlGq9DhwoH1iJ4jb++m41eNzBixD9lnkLkqChH6fXoZ0ZvyYHWcIjXjbzKuQxzfVQdR+ZM8z0hXhex36peRjk9idieoWevfHx6ogUolxrVHkVcMjPn1aNRfwykx/NfeQHERyvQXeT9C84P4o/i5uAyop3xkBqJmBcLtPjmBqBO7qhHf4E72YMs1UdNseGNNf4wc0Q3ZRadQ/kUOro4YCS95juU8MWNlAjZIQ5innGY9p8cjTdbhiZeM61wZIgpbU9VIzaxF4KvvYvv6NxEzzgG5f0k2r4nRB4xykCSGuuY+Zxc8KP3VOiMw/l28M90dqsIK9F74LrYsHgvk7kPuJf2SFqv8qgaD5yzH9o0rEf/MQyj78G2kSEG5rPyD15GQ74jQWLG/772L+OmOyF77utkyHmH17/VROa211GauQeyuWvgtSMD2reIYRAxF+fvxZvsjyd6ZCl2A+Ew2imXEsVEWJuLDXOvqhy98/A7WnuyF0OiV+uOzaEQtis2Orw5l21Yj6TtfxKzcWHd8ine8jdTT8iJ3qzNnxMVRVyik4O+yWoSTzujd2zCrTm8XuOKiIdCEI/wme8OhMAmx7+dBZbw5yc4ZHr6ecGqimy1RZ1JzSXzXXzyIVQsNF/Zzl65HdtXd065FZAs2DCKBhx55GA/kJyMxX4HAx9zlVGsooHCwh1Iaut9aXz49O6XJOhR4wLhOh4bt686Y8WIw3BzFcnaOcHtyLIb/JILgCnm2FEBuAKL0fQMN/QNd98bh+aMjsX1ZoCGItHOAg50CDr+Q1t0Lri7iPTwo0qSGw4Y1ZS1w85+BMf3FehRK9B7zAmYM+h6ZuXI/U20ODmZ/j0enz4JfH7G/XRRwGjMLYV7fI+NAjtxMKSjr32s3Oal1nMK+vWfgNm0+Jg+2F9PiGPiEIHw0kJkt1QDX6z0xFAGDHaFQiGUGByFwCFBQekqea4lTyM6pgcdvw02OTzCCnOXZegq4hbyOd5YGw9VBTOqPTyAm9PgeZSfvstrIb0/h2NE8w3AgGbErDoqLtlAEmdb8t0DpMwtvLRgLh5JERM4TBWTsZmQWsz8rkZHSwVFcUA3AmJf/hA2xsxDkWIHENzejwNomJqK7mE2DSLh4w8+uBhfsfDG8v/j7bzm9oxDBZ33gVY3M3UVwmxJkUnvpjYApInI5Xw19hU6rUsLNzRG6s1WGbVWcxTER9A78pWlwrcBD/dpqfxqoPoNyjQKa0o+RtC2xbsj+GtA12B+FWb9WBZR2YpnmnxlkTr8tewweIAWrTVN0Bb77Zyo2LYtCZKQ0vId9d2P/vqqjSNoljrsY9pXeizERb+Kd2d4mzdeWUXoFY/HKd7FFFJDBvS4iZe1riE0+VX9BQtSJuU59EyviQuDX3xFKUbYFLHgGj6IEh3PNuxARdWa2DSLRH8NH2MNphDd645rUwtiBXcSFavFF0sesugtOfXqJoKYKd6bORgSQDT6xn3cxDSrbWle4uhvuEjYOIwKfweLp3q3Qj+jnUDTbzKpD2fbXEZtRC69nIxEX80cxhCPwbrzPxysUK1Yk6IeoV2bA38fkTXZVimBSA6k7lxmRUCvmKEWgbU4BhSgg/WfH4p1Z3lBlpSLbym4YRJ2CnQsG9pSyEqsiiYxsHEQCvaeLwm16U7cEX2s3D/duWS/0FvFj5TfmTaGqby7q+0O2fmyiw9eVNVD0dYaTNNnHBW7SzRMNandV/xbhrKNj23f+dnKG6z1qXFUOqbtTuG4Y6iyFu7YjjrfrPTU4d665q5IS5Od+D78nww01B/omfQfb7kdH4OAOL2c1cgv1t2rXuVD4L6icPeEmNfVrc7DpxTnYlGN+PJXigslJOsfYqk2d3ZUcJEbGI9MsG4mLM6n/cJfWeHAxUcdk8yCySc7u8Oheg+zsU4ZAUluN3F0HGjzDUQed8VdS9L+AosN3xulb+YUWp1+gN04i/6jc/KC15hdqnDHsEWeU700zuaO7CBl7q+H2iLchsLNKFXK3JSKjwd3UpsozU5F7yfC+a3Pfx47jXeE/2tsw02EUAv2AjA+SUSY30WqKk5GYA/gHjKpvyqz7pRkNrorJq9KvusjTVmlpPV284e/viILkNUg/Kb8nXQ2ObYtDwmfmAczt84TfY13x5a7NJscnDWlm8b0DlN2B4sI81EqLaGtQvjMRqZ2uVs0ZfkHe+G5/EtJLpc9FHKvSVCTur8GjgWMN562dL8b6ScdzPTL1ywhSftydhcruPhhxK92Zie4m3YfCw7EKqbsPQ6UvenRQZe7Dvssif5nW/BN1cj+7IZyuqMTAAa5ykvWkR+pE/tMXK5YFmgRX0uNd4pD7SCxiJhuahDXHU5Cw4TAqpUx5jz3G/H4i8H4OXJfFwl+/iPSIn83IlEYbGjEL22fLAZXFpF9TicOqXPlZkWKbwUsTMFmqKJUeLxRzFH5125YYto+5GxHqY0jRvzcROBr5N5xnfN91N+HMgkcz666cUn886hmO1WmfIGgy03BMutq9R4Fhjy/EbOmZkIaFDI+52bICm/Ll96MQxzAk0uzZjNIjfhLy5Qkz3oZ9k6daYtl6NChPXoFV2dXQyDcROQ0OwvzZgXDV7/TN54BEv25Y+XleF0HOO6uRKIIe6b0r+o2F/z2HUT7U5Pw6nYpNaw4ajh8UcB0dCI+KNGT/aiE2hN35yOh285nEsmNnePTS6l2noJI+F3HeD582HwsmuhhmS6THRX24GmtNPjtln9GYvSAEw1hGUgdni7wGzRlkrFmD1DM6+fvWGQEvzMMMX2YQIomUz2wSRFpHqm0UWbK7ssENF61IZ+gjdvPd2W3JEESqnknAYv/mbxDRXRE727WZ49Mu3o8p6TP9XuyQPRSt3X6sFe9d6tvXTP9I6Te1YdcG+2Klts1nEkNeU7RwnrTX40V0q2ya16TvW63i9p4YQnQXkvJZ2zVn15Ee49OGAaREIT3y5w4HXMdPIFfpjcDHmg8gJYqWAuz28H7MGB7N1CZBiPT4phaeY6jozoDIwJDXWsLjRdQM6fuWASRRo+5AENlJDQpAVGQIPFoIgIiIiIg6gjsQRKpxIT8PlZflyc5C4QhXl/ZUe0hERER06+5AEGkPVKQhYY/8SyxERERE1OHckebs3k8GYVjxv1DeYZ4ZSURERESm7kyfSLuRmB3/FNryPlUiIiIisp07d2ONso3v0CYiIiIim7kzQaT+uVvyeFu5rtP/2krH+dlFIiIiovar7YNITRGSopfileg1yP1GTmsLqoNYtWQFslXyNBERERHdsrYNInWnkL4iDYpnlmPLYnfkrt+Mghp5HhERERF1GG0bRCrcMTk2FjN8lECfQCyOn4Xh/BlSIiIiog7HBr+dXY3MmDjkPuCO2q9OQQV7jPEbgLLcIv24/+xYhEpBo0RXhewN65B0XK3/QXtFD2/MjjIGklasxxI1OUhM2Insy2JL99hj+GMDUJN9EWOWxcLfWV6m6iA2vZuGL6VlBGUfb8ycJfanj36SyKba/reziTon5jWi1mfT386udQ5E/NoEhP9KjewKZyxa+y5ixgCZ6YdRq19CjdxV8Uj6zhdRK97F9o0JWDy4CmuXJZs9L7Ll9Vjg+hmk/zkZxf8ThLh3xbbWzMeI2pOolGfraYuQtCIVNSPmYcN7G7F9vQhSHU9i7YoU8+WIiIiI6CY2CyIdHBygsLOHU3cx0dcFve0UIk0JqcrxR2mB0jQknXZB6MvBcOuhABT28AibjoCfcpBbLC1g0OJ6LHHqCPbVuCB45gS4KsW2lC7wmzYRbvJsvXs9EfzmSkRNdYdSetSQnTP8fjsaTldOobzasAgRERERNa7N+kSqKiqgUehQujsRSdvkYfthlIt5ld/YNmrTb6uHuwhW5YTGdFFAif8g/5P1SIiMQqQ0rD+M7+TZRERERNS0tr2xpnsvDB46FF51gy+CQsIR7PMLeQEbUiigkEcbpS1BUmw8MmofxozIPyIuRgwRY9Fbnk1ERERETWuzINKpTy8oLmug8ByJYb7mg0efZsM9qzk95ALFpSp83dwDzU8cQeYVbwQ/PxquPe2hdBDD/bbdDyIiIqK7VdvVRHpNQJDjKSSuSEWl8Q6ZS3n62sDMKnnaVjxHw797CXZszoFKuvFap8axPQf0Ted17reHA06i+KhaP6mrOYX0rfuauKlGh7IdUZi7ZDOOWXx3DxEREdHdq+2CyC79MflP8xDw02EsWzIHz78ohpiP8d2IGfBzkZexlS7umBE5A27nkhE5R2xnTgz2OfjAQ56tNzAIiwN6Iff9KP2+RLyWgqs+o+GGWqi+lZep8z2+u6SGprYKFwwxJxEREVGnZoPnRN4C6bezNYBSuuu6lemuiA11VUIh3YHdGOk3ta/oWt4XsZzumgIKO3mayEp8dh1R22BeI2p9Nn1OpFUUyjYJICWK7s0EkBLpLm1L9kUsxwCSiIiIyODOBJFERERE1KExiCQiIiIiqzGIJCIiIiKrMYgkIiIiIqsxiCQiIiIiqzGIJCIiIiKrMYgkIiIiIqsxiCQiIiIiqzGIJCIiIiKrMYgkIiIiIqsxiCQiIiIiqzGIJCIiIiKr/eyGcLqiUp4kIiIiImpZXRA5cICrnERErYH5jKhtMK8RtT4pn7E5m4iIiIisxiCSiIiIiKzGIJKIiIiIrMYgkoiIiIisxiCSiIiIiKzGIJKIiIiIrMYgkoiIiIisxiCSiIiIiKzGIJKIiIiIrMYgkoiIiIisxiCSiIiIiKzGIJKIiIiIrMYgkoiIiIisdgeCyCpkJ0ThlchklGnlJGqU7ooamnZ0jNrb/hAREdGd0+V14dvLtfjFgw/ISdaqwbEPU3BUOwDuve3kNANVbgp2f/E9eg/tg25yGuCA3oMc8W3O51C5/gaeTnJyA7riZLyx9TRcHhmMB++VEzuVamS9EYNd2hEY495dTtNBdWAT/u/9r9B79DA4telxaWx/yBq3l88MLmQlYk9mEY4VGYcz0DzQFy49zPMeLuUhdd1WvL93H4rK1LB3G4z/UcrzjMQy6Vv/gq2pn+LA0bPo4uCK/s4NFyLqeGyR13C5COl/3YejdXnNMGge9IbLba6a6G4g5TMb1EQ6QqkrQeqeHKjkFIMqFOw9jGP3/ALmcWI1stekAM+8jhmD5aTGKLpCCQUUNgmUqpEZMwdJhfJkh6WA08QXEPrL40hMLhEh5Z0mHdc4ZFaL0cLNeH5TkSGZWk3tyTxk/lsJr6FD9YOrQzUyVkThFXHsNfIy+GYflsUk4tj9vnhqWhC8rh/F2uh4w+ckky7SIsUy+d19ETptKp4apEHG+tewLN1kIaLO7Ky4EPvnWXwnTxLRzWzSnO3m7QNldQnKa+UEiZjOr+mK4UP7ywlGzvBfloBQH3t5unGKwcGIigmCaxc54ZYUIenFOXj+xTgkibIxc4MYj9nXINjtaJTwmJmAFc97ipDyThOf5VO9kCQC9Oc3XETok95yOrWqB90xzHekfhgzdR7iIiegW/5uZFdJM3Uo2J2GyiEhiJobCD/f0QhYHIvZQ6qQsitPvvBQIz9DXPSJZWJmTtCvx2/qQsSFuKN8bxJyTfMxUSeluSwyQs9RmDEzHKEmg18/eQEislGfyMFD4HfPGRSX1NeNaU6IoFLpgxGmtY1VB7Ep8mUR1EmB3RzMjd2Mgm/keXrGoM84bEaZPOfWeCN060Zs3xqLUGfAf64YXxYo14zqcOHAekTPkbc1JwqJOTX6OQaG2svEPYexdkn9MptMq3Ns6XoNCjZFIUJ+75GrDqLyJ3meka4K2e/Iy7w0BxHz4pCYXb8/tQfi8fys9Sho0G9Rl7tevCYe2ZflBEtYsj8Sn1ni+BqOsb84xqbKNs3Bsj0lOPZ+XN165san4QL7VdpW//7wQA1U0tWR9ijyioExvx4tLjeMlBj+axHgFxeh7Lo0/SM0P4g/ip+bXYgoH5mBqFmBcLtPTiDqxK5qNICTPdhyTdQ02wSRXbwxwgcoKPxXXU1Hcf4ZKEeMhJt+WtCKAHFFKmpGzMOG90TQsV4Edo4nsXZFCirlRQBPzFiZgA3SEOYpp92i6n1YJgcuxppIU7WZaxC7qxZ+CxJEAPQu3okYivL345FSKi8gy84qwYiFK7F9YwJixjmg4MO3b1rGFi58/A7WnuyF0GhpWyuxaEQtii/JM/V0KNu2Gknf+SJmpTh+772L+OmOKN7xNlJPG5ZwGDMRj6IEB7PVhgQ9NXIzSwCvifDrISdZoOX9kRgCbcMxNhznhjF25edJyB8Qjg0b38WW2BAMu7QP69L1VWZkK2fOiIutrlBIwd9ltQgnndG7t2FWnd4ucMVFQ6AJR/hN9oZDYRJi38+DyhjU2znDw9cTTg26VxJ1RjWXxJfZxYNYtdBQ8TF36XpkV935TkRE7YnN7s728PUGjhehXKrp0B5H8emuGOPtbpgpudcTwW+uRNRUdyilJmpRYPn9djScrpxCeV3goYDCwR5Kaeh+G421UgAZcxR+y6QaMkMtmVQTWe8U9u09A7dp8zF5sNSsroCDTwjCRwOZ2eb9+tz8g+HnohSL2MNt+nyE9vse2fmn5Lm2cgrZOTXw+G04xvSXtqVE7zHBCDLbZwXcQl7HO0uD4eogJrso4DQmEBN6fI+yk/IBtBuJIH9HlGUewAVDijgWOcg+54jgJ0da0fxtyf4AqvQ0YL7xGG9E1IhqJK0z7y6gGzoV4WNcoFCIz9ZlNIL87HHhRAnYYnobvj2FY0fzDMOBZMSuOIirI0IR1Fwf4waUPrPw1oKxcChJROQ8Q6tAZrFpTTxR56Z0cBQXVAMw5uU/YUPsLAQ5ViDxzc0oqOt8TEQ2CyIxxBvDcRLFUnx14gQK7hkEL9NCTQQ9SvwH+Z+sR0JkFCKlYf3hVum0XLYnDeUjgm5qXq1TfQblGgU0pR8jaVti3ZD9tQh6zlc302dSBJID7aE5e8a2QZB+f+wxeEAL/US7At/9MxWblsnHL/I97GuwI70fHwuPGhE4HjdMX/jiCMr7jRWBsGHaIhbuj9PkWWbHWH8hUV0Fs1DkHvM7oxRKEZSKi/kf5Wm6BVVHkbRLnLti2Fd6L8ZEvIl3ZnubNF9bRukVjMUrpRriWQjudREpa19DbPIpuTWBqHNznfomVsSFwK+/I5Qu3ghY8Iy+pedwrmlLD1HnZrsg0u5hjBzyPQqOn0HZ0SLAZyQ8TG+K0ZYgKTYeGbUPY0bkHxEXI4aIsWjY6mYrbn16yWNN6QpXd8MdrsZhROAzWDzdu+U+MK0SBP0cimabEXUo2/46YjNq4fVspOH4xYQj0FGebdRjLIJGAJlZedBdL0F2dg0e9R8LqfLSOi3tj2DWZUAMG3h3dpvwCsWKFQn6IeqVGfD3MTkJuipFMKmB1J3LjEioFXOU4kLEnFRD7A3/2bF4Z5Y3VFmpyL6p2wIRwc4FA3tKWYlVkURGtgsiRWE0bIQnVPlJSC0Fxki1UqZOHEHmFW8EPz8arj3lJuv7W+/+4vJvLspjkou4YNpXz8kZrveocVU5pO4u17phqHMzzb5qlJ9WQ/FLlwaPLbpNzi5if2pw7lxzdUAlyM/9Hn5PhhuujPXN/g6N7KsCHlI3geIDyPzsMDLvGY0JvlYeZ4v2pwhJMWnAlNi65uztc3l39h3n4A4vZzVyC837nV4o/BdUzp5wk64mtDnYJIL+TTnmn6+yj7M4r2ugYqs2dXZXcpAYGY9Ms2wkLs6k/sNdOuWDi4kaZcMgUoQvnp4Ydrka5T94Sjdsm7vfHg5Sc/dRQ1OAruYU0rfuM7mpRqKDrlYNjTRckQo4Hb4zTmuaC2jMOYrCEPl58p3d0s0fm5GpH5d18Ya/vyMKktcg/aTcNKGrwbFtcUj4zLzwrSzMQaW+yVgHVbYIkM91hb9fw5t+qpC7LREZxbfazOEJv8e64stdm5F7yfC+a3PTkGZ2k4oDlN2B4sI81EqLaGtQvjMRqY3VGrlMREC/KqTsLYHbb4PgZvVjkizYn+pq/WfnKh1rPRFU3k5NZPVBrJr3MmL38Kab2+MMvyBvfLc/Ceml0vkoPrvSVCTur8GjgWMNFz92vhjrJ32+65GpX0bQViN3dxYqu/tghElXZqJOqftQeDhWIXX3Yaj0RY/4/s/ch32XRf4yrfkn6uR+dkM4XVGJgQNc5aTboUZuQhTeuy8EW14Z3aCWTIPKj9cjYf8ZaKRHxSicEfDEAJTvLYTb4lXyg8elR/w0CPiMRszC9tmW13RJj5dJyDeM+8+NRe/dcbjw1EaE+hjSpP0pT16BVdnVhv0RnAYHYf7sQLjqO5cZHqSdcb87lOdOoVL6IrnHHsOnL8KCmzpbGva7ckosYiY31RGzBddFIf7OaiSKQl3alKLfWPjfcxjlQ+vXqTmdik1rDuKY/m5aBVxHB8KjIg3Zv1qIDWENSv6jm/H8Vh0WrJ2H4bdyt60F+6NKj0PkXmNk6YzQub7I3VCF4K2z4CFS9J8BzD83/Wv+6YsVdY9akp1OwSsJh6HxCseGBdbcBNRx2CKfNXZMb2Z4fNXqXaegks5t6bydNh8LJpp0jL2uRtmHq7HW5PxX9hmN2QtCMIxlJHVwNinTNGeQsWYNUs/o9N+B+jLrhXmY4csMQiSR8pmNg0gLXNfpaxmVDtbeBtBapNrP70UJag+FWeRiCCJzHzEETborGn1/M0WjtXqGIFL1TAIW+zd/M0qLtBoR3iqhbCbwk37DGnYN99eUDgVrX8a27vOw4YXbfFSSBftjM1JfI+nGm7tUm+YzPenc1kHRQl5r+Xwi6lhsmtd0UjO24vaeGEJ0F5LymU2bsy0i3aXdbgJIieGxQi0VoIruTQWQwvETyFV6I/Cx2wwgJXYtB2yK7s3vr+bo+9hxvD9Cn7zNAFLS4v7Iz4q0xS8B3cUB5J0hndstH9OWzieiTk0hvgMZQBI1qu2DyHZGk7kCz7+44vZ+6m1QAKIiQ+DRFrV1zSpB0qw5mLu1Am7TQ616uDgRERGRNdq+Obu9qSmB9Hxxr//1hIPVN6C0M/quAt8D99m3TfMzWaVT5zOiNsS8RtT67kxzdnvj6IkxE++CAFKi7yrAAJKIiIhaH4NIIiIiIrIag0giIiIishqDSCIiIiKyGoNIIiIiIrIag0giIiIishqDSCIiIiKyGoNIIiIiIrIag0giIiIishqDSCIiIiKyWt3PHhIRERERWYq/nU3URpjPiNoG8xpR6+NvZxMRERHRLWEQSURERERWYxBJRERERFZjEElEREREVmMQSURERERWYxBJRERERFZjEElEREREVmMQSURERERWYxBpMTUqjxbhQq08SVarPZOHY+fU8hQRERF1ZAwiLVWahoS0aigc5Gmy0insW/MZVPfZy9NERETUkTGItFD5P0/B76kJcJKnyUrH83BscBDGOMvTRERE1KExiLSQ67RXEeqjkKfIar96CnEzvcEjSEREdHdgEGkhRXelPEa3xE4JBSNIIiKiuwaDSEvpNNBo5XG6BTrorujkcSIiIurofnZDOF1RiYEDXOUk62mK05Ba0R/BT3mivr5OjbLdH6NywFQEeMk3U+iqkb1pPTIdpiMmzLPjNG1qipAU+z6yf+qP8MUL4ddHTicLaVC2LQ5r8wGPqYuwwL9zdoy83XwmuZCViMwKeULPAW7jJ8Kvf4Mbli7lIfX9z/BljQaOfX0R+FwwhjnK84zEMukfHkD2+VqxmgEImPwU/L0aLkTU8dgir+FyEdJ3F+E7edLIzT8cfv3kCaJOTMpnNqmJvPp1ETILq3BVnjbQ4EJhHvK/1sjTgsIZY2Y+BbfiJKQUd5BaKd0ppK9Ig+KZ5diy2B256zejoEaeZ+p4CiIjU1AuT96+amTGzEFSoTzZYelQuXMNUu6ZgT+vW4TB+euRmNPYASxBamQUUo/Lk9So2pN5yPy3El5Dh+oHV4dqZKyIwiubikSOk32zD8tiEnHsfl88NS0IXtePYm10PDKr5fmCrjgZkWKZ/O6+CJ02FU8N0iBj/WtYlm6yEFFndlZciP3z7E1BJBHVa/vmbKU3QlcmINSzg9RDKtwxOTYWM3yUQJ9ALI6fheGNVdbo1FBdVouQ6XYVIenFOXj+xTgkifI8c4MYj9kHlTy341HAdXo04l7whrKLM/yj3kT46EYPIDTi+GnY4t2yB90xzHekfhgzdR7iIiegW/5uZFdJM3Uo2J2GyiEhiJobCD/f0QhYHIvZQ6qQsitPPj/VyM/IgUosEzNzgn49flMXIi7EHeV7k5DLZ6ESie8jkRF6jsKMmeEINRlYC0lUzybN2ar0OET+0xcrlgWaPAJHqkmLQ+4jsYiZLDdfVh3EpnfT8OVlQ1Gm7OONmbNEUGZsHq6WalCqRKDhgvxNaSiQCjOFPcaE/RHhfibNdTU5SEzYiWxpPffYY/j00ej2YRFcl8XCqpZS/faOwi8qFEh/DymlhiDQf8FGhHoZFmlpn/XvfW9jtTfeiNo6Cx7ylPUMx+/CU2JffOQksXcXDmzGut0luCDtjnRsQiJNgjLDaypHzMDVf6TUHb9Hpy7C7FZpQjZ+xpEIRRrWpZ+C6iexSb952DLT07CIrgrZG9Yh6bjh2CrsnOE3/SWEG5/1o/8M0hqtwfWfa/reOz5bNLGVbZqDBMzC9tnecopEuvDYDEjHa0gONs1LRreGx65wMyI2AAvem4VhXWqQGfcakpzCsX3uSHkBQVuNsuIaOHp5wslOTiPqgGyR1/Tf7WcmYMsro/lUCaJG2Kw52yJaUdCtSEXNiHnY8N5GbF8fi1DHk1i7IgWV8iIGYrldGgS++q5Y5k3EjHNA7vtJKDDe1HL9FFKWJaP4f4IQ965YZs18jCjNQrY823rVSFnzHkofCkJU7JuIWzAPAYPkWRbss9PjkdiwMgEbwqSgyRMvSeP6IcT6AFIKqPS1kPU1kaZqM9cgdlct/BYkYPvWd/FOxFCUvx8vgl95AVl2VglGLFyJ7RsT9Mev4MO3b1rGlio/W4P3TrvgqYXRWBE9D4sD3OU5OpRtW42k73wRs1Icv/feRfx0RxTveBupp+VFnCZgsXy8HhWTj4YZj18CZgw1LEItOHMGZegKxX1i/LIaNXBG796GWXV6u8AVF6HSV2k7wm+yNxwKkxD7fh5UxrwlAnwPXwaQRJKaS+IL+OJBrFr4sv47ee7S9ciuMlQmEJGB7YLI6jRE1gVAjQRB93oi+M2ViJrqDmUXMS3VSP12NJyunEK5WbDkiKDfB8PNUVz72TnC7cmxGP5TCUpPyrNP5SH7iguCZ/7/9u4HKqrzzh//e2NuiRPCxAb8jlhCqvh1IRgWgqyUHEy/aI+kR5oT9CtpJTWoiFI1MZ0lobiEleOWUk3U4P8QK/QXciLZBn/f4Ebnu8ouIUHEqkSkQSMhwalDosNPxyVTw+95Zi4woMIMDAPI+9Vzm3me+3jnmTtzmc88/+4cBGpEGU0AohfORZC6eyCCnv4NVi+IQVCALwIdW2GcqbOXBhqtDzTe8reqggflY9vm4pJAna2iuSLY2is3EbD2aDxsQPn7FxC08FeYHyJbZRVoIxYjJQYwVJy0F1EFxSUiOkA8v+KDoEW/QvIjN1BR06DudT/rZBGArxPPGRIAvymhCJ7c+btdQdDiV7Hl5UQEyjv9jFPgFxuPORNuoP6cegJFXuf5ul8k7/fuPH8+XBLoTr5pwOnq4/btcDGy84/gemQyEkLU/U7QRKTiX1fPhrauEPp08QWZvRuGU7cbq0o0Nmm0vuK7YCpi1/wztmenIsH3PAo37MYJh2H+RGOd+4JIXQLybcHPHYIgGSzga9T8WwHy9BnQy63g2G0GLd8LRQZsnUSQJoML3LSlYL74BSwTpiNogj3tDv4P3eFWfE7XefDq/1SGxsiEO3fHGy+g0aLAcvYAit4s7NoqvhBB3JfGPsZMikBymg8sn1/AkA11830Id7obpDIeuPpJKXbmqudPvwvlHHM3OM3VKHpXfA7EVn72XsQu34AtaeEOKyM4RxOWiHWbtmKP+IJMnHQJJdvWI7u4QR03STS2BS7YgPycxYie4gtNQDjmrX4Ws1CHY1Vtagki8mB3dh2KsjfikPkfkKT/DXKyxLZ8Nnr3uvXn25viK05RPDNGxU11dlbQ5EnqozsZj8Dp9lm5nVtk/LNYtygcD6ol7kictm/Vh55jRf2+V5F9yIywn+vt5y8rBfFcRWZwwpKRn59n2zLWJiEuwuGEjteIYNICS+/WEpFhFns0IqjvSVxL4gsyLi0bW1LDYTpaiorL6i4i6uYVgGkT5aXEpkiiTp4LIj/9CIZr4UhcEoPAiWqX5QOuh4J+DwdAudyMLzyx8Leb6uysxq8uqY+kS2hx7Ob30yHwnjZc1zzaNTO3a5uh6yOobkPjZ21QfhgwDPf9rkNN1Q1EP51i/zVv66bWeuYHwFilnY4wXRuqam1Ttbu01P4ZJl0ogmSTcXsldi5biZ2VPdscNZN14jPSChN7tWmsu1aJQv1GGHpcRuoNJ8bda08SkQeDyAd8oMU5nKq2dwVYWxtwcG95r0k1TgiNQZx3HfbvroRJfgda23D6T4fduD6jA1fq7PcQ/EXZGrUs2i2wql3wzvAVX+CoOY56W0rOet4Ng+2xalw44uJ8caL4dRw8pz6HtRWn38xB3gc9A4am2ko02bqMrTBVFKH04njERauzpbs0o+rNQhw6NZRdM1povIFTtcdhlu9Veysa3ylE6W1bunzh5ytOQfVxWOR5u2mFlXcIGgAdohPCcfXDIhw8K99bK8xnS1H4YStmxc+2/5DwisLs6PH4+N0CGGxlhHYjqt47iibvCER2zosiGqu8ZyDYtxml7x2zf8/Iv6WGcpRfEdeXY8s/0RjnuSByWgLWzZuEqrcybBNvlq8vwfWIGATBDNM3ahlnjJuOJH0Sgi4WQ79yJZaszEL5d1OHppXNlToHxCM5WkHFbnvZJatzcMiFCNlvfjYyIk8iT52U1PJM74k1gP+iV5AVa0X5ZvU5Vq5HkTkKSU8GqCXsHryvGYUvy+Osgb74CwQ9+09IumXShQjoqnotBu92UxCfPgeBZwqxVr5X6f+CIosIhsXrapFrsPUQgNj/PRPfqy3EqhWi7Io1yD54Qd1HrtBEPY+shRpUvC4/J2uw9vVqaBdmIi2mc9SkguAlr4rPmxmltjLyvclBUWsE1mUtRpDjmGSiMckH0av1SLheikz5t0v+LT3QitjUdNeWkSO6y7llnUiX3LTCcs0Kl2cv34b1mgiAxmugNJVCv7EB8zZmIm6iutOdXKmzvMe2qJY7Xt+dWWE13xBP0nsGc8+1ObvOz22DAvvagqZn87Au7g4Ti9zIeq0N8HJmxvWdXtvo59HrzEaeSyuUfj6Lzr83RKODW681+Te9XVFX4CCiTp5dJ7KTbUmXwQRYIlDK3WjrqlO8RYD0NyOqDlbCpAvHY0MRQEqu1FmRS/4MZQApKSIw6P9L33Z+7tSqdOZTVGnCEf/E0AeQkuLtbJDi3GsjZ8hz2f9n0fn3hmgMkn/TGUAS3Zbng8hB0yF6/hSc3Z3V3Q33TRQy9I53y7m7WQz54rXnD+72dH8/T5yzxQjmwtJEREQ0AJ7vznYnOXnlHs3Ya0VprYNcXzzsf4VCy/Fro8aovc6IRhlea0RDb3i6s93JawwGkJJvKGLnMoAkIiKi4TO6g0giIiIiGhYMIomIiIjIZQwiiYiIiMhlngsi5VqLZtfu4jJwcn28NvF8nRvvdUpERETkTp4LIk1HsPmlfFSY1HQ/rKeKkZ1bisYB3fquDiUvZWBV11as3k6wF6sRFdvWI3t/nQg770KW4yjUr0ehwXh3vj4iIiIaNiO3O1sZD41cLHlA97oPR/LeHdgnt1Xhat5tKDrELn0GQaeKUHLqbguz2lC1rQimH6cjJU4nziQRERGR+4zYIFIJSURGVgICh3oZG40IODflITn0LguzbvogOmMrMp7ijV6JiIjI/dy32LjlAgx7dqHkTJut61SZEIrkNamIDVCDM2M5crOqEbk0Bp8dKMUJebcVxQexi/VIifG1l1Hv52xQU7JFMWNvKoLV1IDU7saS7bj9cZqPYOfWMnx8xd4KqZkcjqWpqXh8si05OF3Pm4CWrBy0/EQP/xpxfs7K86PAPzIZGWkzoVWL42YrTuzJx84a+/nzC0lC3H0lqAmw3wfbGebDG7H2XS1Wb0vH4w53orFWFWDVm2Yk52cidoKaSR7HBZCJPIPXGtHQc+Ni40YY8vNRcjUKGflbsW9HHjIizSjasBsneoxpNKLUYEb8K6JMwQZkPalF1R+KHW7fF4qkTXnYLrfnQtW8IdIuAtb8UrRGpmP7rh2iPtlI9j2HbfklaFKLOKN+50os2XlSTQkyeBSBcL1/AILULKninVJY5+mxfcdWbFk3G5raQrxd1d2F3vjHjdh2bhKSMzeJ87cJL0bWobxW3ekkbexczEIdjlS0qTlSG6oMdUDYXEQzgCQiIiI3cU8QefYISpsDkLwmEUETFFsLY9CiJCRM/AIX/6KWsdEhaZko4yvKePki6OnZePy7BjSeV3fLMZBaH2jkNtQ3vL83FIkbNiFjwXRoZJe5lw7RP42B3zVRH6O9yMCdRF5WGQJXdbd++s9NxrwQXyiKAm1IAuIfBU6cbVD3NqCm5gaCf5qC2CkacRo08I9NRIKrPdFeM5EQ54t6w2G0qFkwVqLioi8Sn57JcZFERETkNm4JIs0Xv4BF8zD8e7R0TcH83DwkzlCTt+Olwf3qQ48bp0CDr1HzbwXI02dAL7eCY7iq7h4c2Q2/A8kRalJQeoztFM/tBVitakvk5QtotPggZKqPPT0I/j+ZjeBWETiesadb/usjND4yG9EB9jQRERGRO7hvYo2XnE09irTXoSh7Iw6Z/wFJ+t8gJ0tsy2fDX93tUd/J//seFIdxjAM2YTYSIgHD0eOw3qxDRUUrZsXN7h57SUREROQGbgkitY88DM2VBjReUTNs2tBUfRxNPfJGkE8/guFaOBKXxCBwotqF/sAwdfjqAhB4TysuXuweIzlwCoJlt/ypwzB8cAyGe2IwJ4od2URERORe7mmJDJmDRF0zSosrYbLFQVaYKoqwee/R7rF5TnG408w1eSArrnamLa4EWE4c5wEfaHEOp6rtk1CsrQ04uLfcpUk1ku9kHfClEfY11E+iaLvDJBunhSL6ifH4+N3dqLpsr6+5qgxlAx2bGTAX8x5pRsn7dQj6aQKC7rBMklzQPTM9A4XqOSAiIiJylpu6s3WI06cjtvUdZK5ciSXL1iDzfSsSRJ5rM4Id7jSzv86W3tUj7SwnjjMtAevmTULVWxmiviuxfH0JrkfEIAhmmL6xF3GG3/wExBnLoBfHWLKsDP6rRNCm7nNF0C/+CSse/gKFmWts5+/XBiB4wLOpfRD7k3Dx7oZiTuydx1lar7TC1N6Gxi+6pscTEREROcV960R2arfAclOBRjNKulDlPb2vWaHRjpARnfL8QQON1wUc1Ofj1I83IOupznU0nWXFiW1r8KZ3OrY/3/dSSVaLFcpoea9GOa5dR+QZvNaIhp4b14l04CUCoNEUlMhZ2iMggDR9sBF57zTAfI84f/daYTKUo/yKDtERrgaQgKX6Lew/MwXJT/e/1iYDSCIiIhoI9weRNCB+MQkI+mwXfi2HA6xYg8z3WhG3+kXEubRWZB2KUldi1d7zCFqUzMXFiYiIaMi4vzubBkd2r7djYK25tq75G8B9PrZ1KGlk4XVG5Bm81oiG3tB0Z9PgyO71gXYx27rmGUASERHR0GMQSUREREQuYxBJRERERC5jEElERERELmMQSUREREQuYxBJRERERC5jEElERERELmMQSUREREQuYxBJRERERC5jEElERERELuu67SERERERkbN472wiD+F1RuQZvNaIhh7vnU1EREREA8IgkoiIiIhcxiCSiIiIiFzGIJKIiIiIXMYgkoiIiIhcxiCSiIiIiFzGIJKIiIiIXMYgkoiIiIhcNoKDyDY0VZ9Ei1lNEhEREdGIMXKDyLNlyCszQtGqaRrzLKeKkfvCOmw+ZFRziIiIaLiM2CCy8ZMGRD8zB35qmkgT8gxSfjIJp081wKLmERER0fAYsUFk4MJXkByhqCki4UwxMv8civx1s6FRs4iIiGh4jNggUvFmmEC9RKRiX2Y8/PjbgoiIaNh5Loi8aYXFbIH1ppruj9UCS7v6eEhYYTW3iTp1bmOrg3TEjC+0iHNvsaqJ/lmvsSObiIhoJPi7DuGz802YNjVQzRqgm21o+r8HUHqsAZfatZj6j3OR+LOZ3a1GxnLkZlUjOjcbcTo1704sJ1GU/RYqvpuClHUvIHqymu9W4jmW7YZBTQHhyNibimA1ddcTQXrL4QJknonC9ozh6x6u37kSeUjFvrRwNefOTB9sRO5BIx6MTkXGc6GjrkvbHddZy9FCGM6rCRstgn48F9FTfNS06vJxlL71AT5utcD3B1GI/0UiHvNV93USZQ6+fRgVX5rFYaZi3vxnEBfWuxDR6OOW77QrJ3HwvZO4qiY7BcWlIPoRNUE0hsnrzE0tkRbU73kVuYfaEPKTZKQsjsKDfy5CZnYpWpxteexkbcDB/DIoz/4We9ZNR1XBbpxoVfc5OlMCvb4EjWrSdeFI3rsD++S2qv8A5q4zysYXmisK8NqZcGS98Vsk3SzFtvca4Hz75d3DfO44DH/VIGzGDNsWqDXiUH4G1u482T3Z6Cv5g60Qpx+IwjMLExB2sxrbMjfC4NDobD1VDL0oU+MdheSFC/DM31twqGC9LUgnIuFz8UPsk89vCSKJqJt7gsjmchTVaJGkfwHzYkMRHDYHSeufR+y1Iyg52qYWcpIyHfOzs5EUIUKbyfFYtzEVj9+uccTaBtOVtjEZSLjFKBtfqI1Nx8YMUd9xGgQ/n42MZ6ZjzA6N/P50PBY107bFLkhHjn4O7q95DxXNcqcVJ94rQ9Oji5GxKh7RUTGYty4baY82o+Td4+r10oaaQ5UwiTJZS+fYjhO94AXkLJ6OxveLUMW1WYlguSIuhIk/QtLSFCQ7bGyFJOrmlu7slncykHnxqVu6RZsMhagYNxfJTwZ0dWdHLo3BZwdKcUJ+USk+iF2sR0qMQ5TYfAQ7t5bh4yv2rzvN5HAsTRWBpNqlbTqYA/37t2stGUR3dO1uLNkO5/99v+XtXeVYtQOR1StRqktHwpVSbKs02r7ENVPikfVSAvy97KVlS27TgQLkfXgBlu/EadHNRvKjDSg0JzjVzevIVLEbu945iUY5nvQeBUERi7BieYwIvuz75bCD+rdfw7YKo+255HvwWFwy0hZ0dw/LLub+69w/23G0iQj+tAwHjeIosj6xqVi3uOdz5X2XhAyfo9h8tPO55iDjhUQEdhbqr87y/dhnxuMTm3HiohXKIzGIQzUO2R4nYOMrMviUBYeXO7rYbt/93/15S360EjvTi3G/fByh7pbEOVouPrOrd6XisXGtMOSsR5FfCvatmqkWENqNqD/VCt+wUPi58D4TjTTuuNZs3zUX5mDP2pix+4OVqA9u6842X2kDtD63dIsGxolfbjKA7GJEqcGM+Fe2Yl/BBmQ9qUXVH4q7Wz7axZdhfilaI9OxfdcOUSYbyb7nsC2/BE1qEb+f6LF9Ux62PxcqUqFYIR/btsVuH88ov7CX7DyppgQZrIgv63r/AASpWfYvcFGuc8sqh8mWr4O/v+0Bmv69CDVTU7B9x1bsyV6Mxy6X442DtmYjG7OhALkftiE2bQP2iDK//7mCiv8YQLfi2WLk7r+E4PQ8Wzf9nuxF8D0n8v7YoBaQ4wpfQ16NL5JzxXuwdyu2rI6C5cMCvNmrxbi/Ojur8T+q8b2f/7PtdeUvng7T0QLsNPRqnf7zB6h62PG5jmDzexfUnU7W2aIgLH0T9qybjQcv1sISl4s9+Yl47GIZDtWpZe5WFy6gHuOh3Ccei2ux1eGz10V8ZgNxCSbbh9MX0fPDoa0tQvZbx2HqnMDmpUNwFANIIqn1svgbfEn8LXphje1v+6qXC1DRbG/cICI7Dy/xo0PSskQE+YrfdV6+CHp6Nh7/rgGNnRMF7g1F4oZNyFgwHRrZciS+1KJ/GgO/a6JMZ0zlpYFGBqze8rehggflY9vWO4QdKieRl1WGwFWyFbK7Bcg2tlJsGT8og37ZcUTu7Z5AZJ2xACmxAVAUBUpADBKifdDyaR3ssXMbztZcgBK9CEkRvrYy2pBEJDq2IjnJcukSzJqpCJtun2ShTI7Bcy+lY2m4Vu3GFEF43IvYvjEV0RPt508bkoD4R4ET53rM1uinzi6IiMf8EPvr8otNx+qY8Thd4zB+T4pIuuW5zOca1GDc2Tpr4DdB/PvvayH/F/hDHygTHsKDcper43JHum8acLr6uH07XIzs/CO4HpmMhBB1vxM0Ean419Wzoa0rhD5dfEFm74bh1O0GHxONTRqtr/hBNRWxa/4Z27NTkeB7HoUbduMEF4gg6uLhILIXERDerz60GaeIUOBr1PxbAfL0GdDLreDYCBvYLLvN7V2FpoNlMOgSMM8h4At+OgFBuIQWx4bEe+5VH9gpGhHwiqjuW1vqC1sQ/dj/nG5LDYbmiUQkTaxG3pr12Ly9FBWnLsCqC8VjM3Td3TGa8bh+7ghK8nLs51efhf3n1H2O+qzzwAX+z6nA+fNdLcu3Y3suR87WeaxorkbRuwdsW/nZexG7fAO2pIXf0hPQH01YItZtkq2/qUicdAkl29Yju3hsTlgi6i1wwQbk5yxG9BRfaALCMW/1s5iFOhyrcnGcP9FdzD1BpIxQ2i23fvm4uAYg2utQlL0Rh8z/gCT9b5CTJbbls9G7Z26kaP1KRIo/0PW8NaNOh0AY0dKipvslzs93wPeUrjBv4LymYF7WJvz+pUWInCiC8eLXsTY9A0W13T+dTR/kI3N/Ax6cm2I/v2JLcqEFyy2++5v6wDkjos4jSVgy8vPzbFvG2iTERTiMKR6vEcGkRVx3arqTyDCLPSIe70W2/oYjLi0bW1LDYToqfnxcVncRUTevAEybKC8lNkUSdXJLEBkUEgrl00/R2KPb0AjDxgzkfuDC2L5PP4LhWjgSl8QgcKLaTf2AG4KrIeI7WQd8aezqdrUxGtF0uzFpdxQgh6uh/vPuMYADZb5wHKcv3IB2SihiF6RiXf5W5PwYMLx3TK2jEac/aob/k0mYFxGgDgPwwf0enHTS9Jfz4iWL16ym+zf8dR5VtNMRpmtDVW3P8asttX+GSReKIK1ItFdi57KV2FnZ8weeRnye/dAKE3u1aay7VolC/UYYelxG6g0wxvXspSEay9wSRCpR8Uj4/kns3HMcFlsgaUXLB0UovTwF8+McJ9b04wEfaHEOp6rt3QXW1gYc3Ft++65Pv4dEIHIONWpZW0uoS2PfHO5Yc01+mVpxtTOttp72DBJPomi7wyQbwW9mFIKMZThUq2YI9X8qQ6MuCo/1t6B6F19EPjEFVw0lOHhOfd0Xy1DqcExnffvpB9j8ehGqLqvBgbUNrVesUB7sHDaggeZBEVCcqkaL/GMoFxyvKMCbA3gup537qKs+lnOlKKm6gceeiBHvs7OGoc6jmg7RCeG4+mERDp6VnycrzGdLUfhhK2bFz7a3mntFYXb0eHz8bgEMtjJCuxFV7x1Fk3cEIgc/soJodPOegWDfZpTKH+C2P19WmAzlKL8iri/Hln+iMc493dnjRLD4SjpivyzCqhVylvIaZBsUJOrTET1BLeOMaQlYN28Sqt7KsM2GW76+BNcjYhAEM0zfqGU6BcQjOVpBxW572SWrc3Cor4F2t6hDyUsZWCW3/XL6bh129UiLIHF+AuJEkKiXx19WBv9VcryjA108snIT0LRdnZktNtvyK7nxPbu4+6GNS0dGrBVlv7e/llXbjPAdwFpkfk+9iIyoVhRl2WcTLlmZgTf/GoV1yzuXXvJB9JLFiL52BJnpcv9LeK1mCubMELtk8Gwr42beVtTkqbMbf38M1th0pMX1urtKn4ahzqOcJup5ZC3UoOJ1+Xlag7WvV0O7MBNpMZ2jJhUEL3kVGZFmlNrKiPOanoOi1gisy1qMILby0pgn/u6s1iPheikyV8q/7WugP9CK2NT0/u+4RjSGuO+2h53aLbDcVKDRDKIbWt5n+5oVTs24lvfYFpGE52ZnDyH5Wqzy3AEntqzBTu907FkqlzJylWxlvSFOig/uONRSjlcd5wPNEC7n0mNNQ/F8VqWP+jjDA3UeSm69zpwiPwdWKP1cG9ZrbYDXIN8bohHErdea/LvcLv4u21YEIaJOblsnsge5BM9gAkhJztJ2NihUxPMNewBphCFL/FrtWiPSNdZThcjeVgnTd/Lcwdb9WH5mPGLDB9qvqIjAoZ+gQASYHg3G+gponeXpOo968nPQ/7WheDOAJLoj+R3DAJLottwfRJLLlJC5iPvuELJX27tN1m47Cd9FLyI5gn+4iIiIaGRyf3e2U9rQVH0eyvRw+Ds/w2IMsMJ6TbYMMXi8G3n+OiMam3itEQ29oenOdsbZMuSVGaEwgOxFYQBJREREo8KwBJGNnzQg+pk5Ls1gJiIiIqKRY1iCyMCFr3C8HxEREdEoNixBpOI93LOpiYiIiGgwhmdMpLy7jHpTlRFFrk9pdvXON8NsNNaZiIiIRj3PB5GtldiZ+TJWvbwbp81q3khhOoLNL+WjYiCLPQ6X29XZakTFtvXI3l+H/mJ166liZOeWolHeUpCIiIjISe4NIs+UQK8vQaOavIW1AQcLPsIjab/FlrSHcOT1UjTdLsrp7zgj0Uiqs6JD7NJnEHSqCCWn+gkjlfHQyFnh96ppIiIiIie4N4i0tsF0pe3OrV/KdMzP1mPeNA000xKxLjsRgbebX9PfcUaikVZnTTiSN+UhObTvCUxKSCIyshIQyPslExERkQvcsti46WAO9O8b1ZSjcGTsTUWwmoK5DqWbd+PQV1ZbsKWZPBur1yUhWF0v0unjuEtrJQrz3kHFFVGbe3zw+BNT0VpxCbG52d032W8+gp1by/CxLCNoJodjaWoqHp9sSzpfZ2szKra/gaIz9kBTmRCOtAxxHF/7bqe5oc7ASRQt2w2Dmhqy80s9cAFkIs/gtUY09OR1BhlE/qXxovzPwP339Y7rV80d14+90fHLpW90fCQf27bragHhb+c63l6b1rFm6391XP5vkf7vSx0fbX2x45drizo++5u9iFPHcZe/ne8oyxD1yT/ccfH6tx0d17+w12fpqx1HLqll/ru2Y//qtI4NJec6rss6dtX57Y6uM+ZUnc0dH/02rWPZqwc6PvtGPNe35o6zhVk9X7sz3FXnjm87vu2sp63euzrOqnto6Az6OiMip/BaIxp68jpzT3e2lwYarY96k3oFD8rHtq17KR/rx0dwyBKK51Jj4OclMrx0iE59FrMslTjysb3FzJnjuE3DRyhvDUDi0jkI1Ijn0wQgeuFcBKm7be4NReKGTchYMB0a2d0r6/xTUf9rDWjsbHx0ps5ny1D0WQCS1yQiaIIop/gg+LlFmPddJapOqWWc4a46yzGQnfXkHXKIiIhoADw2O7vp/Hlg4hQ8LAPITl4BmDYROP9ls5rhOSZRH8uE6SKoUzNuZ5wCDb5Gzb8VIE+fAb3cCo7hqrrbWbbnUqw4+14hit5Ut33HbJNwmr66XVf47XmyzkRERER98ewSPwrwPfWh3b22vGGjKH0/fXsdirI34pD5H5Ck/w1yssS2fDb81d0u8Z6EkBkzENa1RSFhcQoSIx5SCzjJk3UmIiIiugOPBZH+kycBX38Nk+Oi2DeNMH0NTPJ1dXbJ4Pk9HADlcjO+6Gt9xE8/guFaOBKXxCBwotr9+4DrUa+feO3KFQuU0Jl4LKrnFjzZ+eN5ss5EREREfXFvEOn3EPxxDjXVbfa0vDONGjRqnohH3D2VKNxfB4vMu9mG+v3v4NA9MxH/hI+9UKc+jtPl4jEUvVmG+oEuWB4agzjvOuzfXQmTHJJpbcPpPx3uuc7jAz7QinqcUuthbW3Awb3laLKleumrzmFzkODbgML8UjR11vfycVuLocGVnny31dkKq7kNFrldsx0IVzvTFnV8ahereJ8ysOqlEbg4PBEREQ0btyzx082C+jdzsLlKXS/xHh8kvpyH+VNsO3suTyPceZmbfo4j1e7Gku2XkOy4tI2rvjqGbZtLcMIWHCkIjosCDOcR2XVMC5oOFCDvwwuwfCeL6DDvqalofL8WQes2IylElunUT50tdSjN617eyLY8z/wVWCoKuDRtyC117r3Ej4PIVOxLC1cTUhuqfp+BXed8kZS9AfMC1GxyGZcdIfIMXmtEQ09eZ24OIlVWCywW9Jyh7MjSJkKd8dDIGcZ96es4tiDSjBWb9IhW15kcKOs18STjNVDutOC2vD/1NeudX4+j/l57f/ud5NY690ccy/o3BYrjpChyGb/YiDyD1xrR0JPX2dCMiVTksjd9BC8an/4DSKmP4zSeOgdN5BxEDjKAlBTvPoIxSc54djYY6++197ffSW6tc3/EsRhAEhERkSPPzs52o6Cf/gpZz4UP6+RuIiIiorFq1AaRcs1Jfzc1tBERERGRa0ZvEElEREREw4ZBJBERERG5jEEkEREREbmMQSQRERERuYxBJBERERG5jEEkEREREbmMQSQRERERuYxBJBERERG5jEEkEREREbmMQSQRERERuezvOoTPzjepSSIiIiKi/nUFkdOmBqpZRDQUeJ0ReQavNaKhJ68zdmcTERERkcsYRBIRERGRyxhEEhEREZHLGEQSERERkcsYRBIRERGRyxhEEhEREZHLGEQSERERkcsYRBIRERGRyxhEEhEREZHLGEQSERERkcsYRBIRERGRyxhEEhEREZHL3BdEGsuRm1UOk3hoOpiD3INGez4RERER3XXcF0Tq4pH4gzLol62E/v1JSJyvU3eQJ1mvtcHSriaIiIiIhsjfdQifnW/CtKmBatZd5qtybH79JAKfewGJMzRqpoP2OpRsKMP9P9djfoiiZrqbFabDu/HaMS2S1y9GsJea7XZGGLJyUPWP2chyNog3HsHmTdUIXPQrJET64JYz4JHzMza44zprOVoIw3k1YaNF0I/nInqKj5pWXT6O0rc+wMetFvj+IArxv0jEY77qvk6izMG3D6PiS7M4zFTMm/8M4sJ6FyIafdz+nXbhGIr+4zyC4lIQ/YiaRzTGyevMvWMia3djybKVWLLzpJoxzG4acWjHYfg9e4cA0kbB/feJ/79vKAMkBX5zn0fyD8+gsLhOhJSDUYdSfQZKz6jJwRDnx7DrMDRPpyLxdgGkjXvPjxzqcOvnQwa/4nOzbDfq1Ry6PfO54zD8VYOwGTNsW6BWfMbzM7BWnFOLWkb+cMrNKsTpB6LwzMIEhN2sxrbMjTA4jDCxniqGXpSp8Y5C8sIFeObvLThUsJ7DUIh6u9mAkq0lMFQdR+M3ah4R2bg1iKyvPom4nyUgqOb4CAkGdJiXuxnJEXcKIAWv6ZiflYl5U9T0kNEgeGke8peE3iFYc5YVlittsAwuErUbp0Ncdh7SYvpofXLT+anfKYNEOdRBBCk18sdGjhrUnESReCxbT/etAvK68umOvj8dj0XNtG2xC9KRo5+D+2veQ0Wz3GnFiffK0PToYmSsikd0VAzmrctG2qPNKHn3uPoDpg01hyphEmWyls6xHSd6wQvIWTwdje8XocpsK0REQsuBYhju84Wfmiaibm7szpbBwHFE7k1AS1YOWp7ZIYI3dZfazdryEz38a3ah5Gyb+DJT4B+ZjIy0mdCqpfrn5HFutqH+7dewrcIIy3eA4iWCydQXkRjW3eUng5q8GjUhxK1yrK+TzhRj1ZYvkJSfidgJap5gPrwRaw3TsfG3ifCXGdZmVGx/A0VnZH3t9YletAIpsS6MG7VNXCpDo5p01F13tTs7IgWxFw+gqOv8LELG8hhox9mKO1Uft5yf25AtkfqvErAvLVzNGTvccZ3Z3hek9jp/8trbDcj36NFK7Ewvxv2936/a3Vi+HVi9KxWPjWuFIWc9ivxSROA+Uy0gtBtRf6oVvmGh8BuyIRdEQ89t3dkXSpH5WyMS9VNQnleGQDf9HSS6G7i3O7v2OAy6APhCB/8fAIbqW7u0K94phXWeHtt3bMWWdbOhqS3E21WuN6n1d5zGP74qAiBfJGdvxb5dW7FxkS8qtr0qgk61gBD8XB62b5LbYsxS81w2YzYSfJtRVdOmZkhG1BxrRnDcXHsAKcK0+jdfQ9HVKGRt2tFVn1P7f4fSz2wFnOM3B+sc6jurq/55SJphL9Kp8fBhWHqcn2Ls/8/OOjpXH7ecH5vOrmqHlsgeeu7vbqEkp124gHqMh3KfeHylDa3yGrR/+Lr5ByAQl2CSyyeIqzR6fji0tUXIfus4TJ0TscSPieAoBpBENnI4VOER+C5KxuMPqHlE1IPbgkjZlR30j+G2Jv/gqHDgNl3a/nOTMS/EF4qiQBuSgPhHgRNnG9S9zuvzOO2VOFJxA7MWpSJ6sgKMU+AXm4rnwm7g0OFKW8ubjcYHGq3cNLhfzXJdAKLjAlBvOIwWNQfNlSIImoLYqM5WTwVBi1/FlpcTESibSm31icecCTdQf86FaEn8O8f63u/dWX8fcR7sRToFPZVy6/k51zkbw8n6uOX8qC2jsqt6rwhYxZb/M8fWV/v+oh+kdu3ft2oSikQeA8k+fNOA09XH7dvhYmTnH8H1yGQkhKj7naCJSMW/rp4NbV0h9OkrsSp7NwynWtW9RGQ6uAulDyRhaVyvSWtE1MVNQeRJ1NToED1TDRAiZiJO5tXak52Uzu5UGxEUeQFWq+stkX0e5/znOA0dpv3QMbJS8PAjom5fGm3rWLqTNnYuZn1TjRMX7OmWj6phCnsSkQ599Mp44OonpdiZmwG9Xm67UO6xcWf28+PIY/WpLUORMfzOyz0ZT6LKqEPy0w5dsxEJSNYZUXWcUeQdNVej6N0Dtq387L2IXb4BW9LC0cfI39vShCVi3aat2JOdisRJl1CybT2yixu6f2gRjVVflWPXvytI+qX4oaVmEdGt3BNEyq5sTIJ/V6xgf9z01XAFAiKA7PXKvjeuV3Odu3jNxJxoK8qP1QE361BRaUXckzNlDVRW1O97FdmHzAj7uR45Wb8RWwrih20lFQ/XxzbE4Q5amtHY43Mj2YdDNH51SU3TLcKSkZ+fZ9sy1iYhLsLhDI/XiGDSAkvXVG2VyDCLPRrxA6InBUpAOOLSsrElNRymo6WouKzuIhqTjDDsLUOjRkHL/ylE0Ztie/ekrbep/rB4fNQ2g42IBLcEkbIrW7ZG5jmMaysS8WPjJyfd3vLXr8kBCEIrTH9V0yrTX1sBX188qKbdKWhODB6s+gin6/6MCk0MYnuMUaxDTdUNRD+dgugpvmoXsdYhyPQ0D9fH2CzejW6tjj8s/OV7dQktPX5rGNHypTinkyepaXKJdjrCdG2oqu35RddS+2eYdKEIks0q7ZXYKa7TneIHjyPNZB385LXDXm0a06zQ/GAm4kIeUtNEdCduCCJlV7Z99m7XuDa55SYgyFiN055ujNT+CPHRwKE/FqNe7aK1nCpGYaWo47wfdXf5WdpgMcvNgusieV3e6UVNuyxgLuY9fBLbdlYisGtCTSctNN7AqdrjMMvv7PZWNL5TiNIBt/b4ws8XqKk+DstNkbxphdWlO9Q4WR93nB9bkNg9rEHOzHac8Q1dOKJ1RhT9qXsSlhyH1GcXOPVDh+iEcFz9sAgHz8rJVFaYz5ai8MNWzIqfbV+mxCsKs6PH4+N3C2CwlRHajah67yiavCMQOd2eRTQ2BSB6aQqSHbeF4ba/68FzxeMnA+zFiMgNQaTRiCaEI7L3sgdqgOD5sW0KgpdkYvUjZ7D5JXvL6KqdZxD0fCaSw7rb2+r3Z2DVS3Irxsci/bFD2vU1Ln0QHRcqArpQzIntPQh7CuLT5yDwTCHWrhT1Sf8XFFnCESdipJYrAxmIGIDY/z0T36stxKoV4ngr1iD7oDog0ynO1cct50cXj6xV4TBst78PcmmfnhNrdIjLTUWcbd1Itcz7k5CxNxXBaglynSbqeWQt1KDi9QxxTtdg7evV0C7MRFpM508oeY28ioxIM0ptZeTnIAdFrRFYl7UYQT3GHBMREd3e3X3bQ6t9bJicYTwSyPtaw+vW2dQDY4XVfEO8uIEfz731of54/jqTnxErlH4+//wc0N3mrv1OIxpB3LtO5EikaEZMACkp3u78olZEcDC447m3PoNjv6MNb3voXvIz0v/nfyR9DoiIaPS4u4NIIiIiIhoSDCJHpDY0VZ9Ei8fWkhx+wWlyQhbHQhIREY0WDCJHorNlyCszQuEqt0RERDRCMYgcgRo/aUD0M3Psy7EQERERjUAMIkegwIWvIDmCMx2IiIho5GIQOQIp3iNnRjkRERHR7XguiLxptd3txCrvskJ9axfnqecd6YiIiIhGFM8FkaYj2PxSPio8fjPtUaa1EjszX8aql3fj9BianU1ERESjC7uzPelMCfT6EjSqyVtYG3Cw4CM8kvZbbEl7CEdeL0XT7Vok+zsOERER0RBjEOlJ1jaYrrThjj3VynTMz9Zj3jQNNNMSsS47EYG3m1/T33GIiIiIhph77p1tLEduVjMin7XA8E4DTN+JeGhCKFJeSEf0ZMcy1YhcGoPPDpTihOyqVXwQu1iPlBjfHmWic7MRp7Nn3TbPcgGGPbtQcsYeSMnnSl6TitgA52c0N761DrlfPYUtWXPQvRxjGypyM3Do7zOxcUGA8/Xph+lgDvTvG9WUo3BkOC6wba5D6ebdOPSV1fa6NJNnY/W6JASrFXT6ODQi8X6+RJ7Ba41o6Ln53tknUX52Jl58fSv25b+ABO867MovRmOPiTRGlBrMiH9FlCnYgKwntaj6QzGqXBr7Z4QhPx8lV6OQkS+OsyMPGZFmFG3YjRPtahEnBM2Jgf/Fapy6omZIxkpUXAzAvDgRQLqR30/02L4pD9ufCxWpUKyQj23b4u7A72YDSrILUOG7CBsLdojzk41k32rkZXefQ6eOQ0REROQBbgwidUhYKAIzjQJMmI75axIRfK0WNQ3qbhsdkpYlIshXlPHyRdDTs/H4dw1oPK/udsbZIyhtDkCyOH7QBHEcxQdBi5KQMPELXPyLWsYZAXMx75FmHDI0qxlAy399hMZpMYicoGa4i5cGGq0PNN6ypVTBg/Kxbeteysf68REcsoTiudQY+HmJDC8dolOfxSxLJY58rHZcO3EcIiIiIk8YujGRE6YgZMINNF5sVTNuQwRF96sPnWW++AUsmofh3yPQm4L5uXlInKEmneKD6LhQmD6pRostfQEnPmnFrNgfYThCsqbzIpKeOAUPywCyk1cApk0Ezn/ZHegSERERjQRDP7Hm5t/UB27kNd4tgZ4SNRtx7ZWoOCMSZz5CeXsM5kTJVr5hIp76e+pDu3tteUREREQjzdAFkVcu4OwVIPBhJ2efdPlbnwuSax95GJorDWh0HMuINjRVH0dTjzwnjAtFbOz9MFQeR31NLR6MnY2gceq+Ln3Xx138J08Cvv4aJsfnummE6Wtgkq868YiIiIhohHBjEGlE1bEGWGQQZG1FVfEHqPeOQbScA+Is3XQEe7eioqLBHri1i2O+e7jneoghc5Coa0ZpcSVMtqGCVpgqirB571G1W9o1/nEicKwV/77K99YJNc7UxxV+D8Ef51BT3WZPyzvTqEGj5ol4xN1TicL9dfZzeLMN9fvfwaF7ZiL+CR97oU59HKebVfz7DKx6iYuWExERkfu5MYj0gearEqxdsRJLVq5H4cWHsUK/+DYte32Zgvils6FUvI7l8jirX0N9xFOIVffa6RCnT0ds6zvIXCnKLFuDzPetSBB50QOZEDNhNubMENHojLm3+ffO1McFAfFIjlZQsTtD1FseLweHmtR9XqFIzhLn6+xurJLPtSIDm88GYHVWCoIdx0lKfR2nyw1cvdwGi7kZLWqsSUREROQublwnUl070c8Kyw2oM4gHygqrWQR23hoofQWh7RZYbirQyBnhQ8rJ+jjLKuptEefoTrOqLSL4w/j+X1d/x7kp6v03BUrvIJSGBdeuI/IMXmtEQ8/N60SqxomgblABpCQCHxEY9RuwySVvhjyAlJysj7MUuVRPH1ODND7Ova7+jiPeCwaQRERENBSGfnb2gLShKm8lluQdg0XNGV4jrT5EREREw8s9QaQuHll7nb8NYP98EDIvESnzHh2WNRtvNdLqQ0RERDS8RmhLJKANm4PYsJGztM1Iqw8RERHRcBqxQSQRERERjVwMIomIiIjIZQwiiYiIiMhlDCKJiIiIyGUMIomIiIjIZQwiiYiIiMhlDCKJiIiIyGUMIomIiIjIZQwiiYiIiMhlf9chfHa+SU0SEREREfWvK4icNjVQzSKiocDrjMgzeK0RDT15nbE7m4iIiIhcxiCSiIiIiFzGIJKIiIiIXMYgkoiIiIhcxiCSiIiIiFzGIJKIiIiIXMYgkoiIiIhcxiCSiIiIiFzGIJKIiIiIXMYgkjyi5VA+Ml/IQMkpq5pDREREoxmDSPII/x8/j6QZQMWpC2oOERERjWYMIskjTB8WoAhJ+P0vpqs5RERENJoxiCSP8Jufjfyl4dCMUzOIiIhoVGMQOQqNlPGF1mttsLSriX5ZRXmOhyQiIrpbjHtV+OaKGQ99/0E1ywO+KsfmDe+iZdLjCPkfipo5wvVX5/Y6lLy6F5/rZmG639A2tz0QMB1+f/0IpaZH8NMwXzXX04w4+i9ZeLc9ErHTvdW8O7Gg/s1s5Pzh/+LC+Bn4xyn9lb87ueM6azlaiD8ZTuL0yc7tAiwP/gABE7zUEqrLx1H6xl689X45Tta3wScoBP9Do+7rJMoc3PsH7C39f3G4+nOM0wZiiq53IaLRxy3faVdO4uD/U47qrmvNvlm+H44AD35dEo1U8jpzS0uk6WAOlixb6bDlwGBUd/Z204hDOw7D79kXkDhjlHxhOVVnBfffJ/7/vqEPikfX+EIrmt55HSX3iPq+8SJCagpQWNmq7iNXmc8dh+GvGoTNmGHbArXis5mfgbU7xZebWkb+4MnNKsTpB6LwzMIEhN2sxrbMjT2uSeupYuhFmRrvKCQvXIBn/t6CQwXrkXvwThcu0Rjzufgh9snnuKomieg2OoS/NF6U/xmwy2WvdvzyNx90XFbTHSd2dfxyaVrH/hNq2tHf1P+OJqOxzkPuUseR36R1bCi7pKapP4O9zqSzO9I6frmjVk2pzh/oeGVpVkf5FzLxbUfN1rSOZa//V8d1207pekfN6yJva7XYK5k7PvqtOI4oY0/bXT/2mrhuf9fx0VU1g2iUcse1dv3I73p+rxFRD/I6+zv54LPzTZg2NVANK10nWyL1n0QhPzcefnfKu9mG+rdfw7YKIyzfAYqXDvNSX0RimI+tvOweNWTloOUnevjX7ELJ2TZYocA/MhkZaTOhVUvhZitO7MnHzhq5H/ALSULcfSWoCchG1nydvYwznDlOv3UG6neuRF6NmhDiVu1AcoSacIkFjQcKUGi4gBZZIcUHj8UlI21BKLraPq3NqNj+BorO2Oss6xO9aAVSYjtft5PnsF/24zRFJuH6f5bghFlkifrMWvAi0uJ6PldVRApiLx5AUddzLULG8hhoO3v0+6mz/XOixeM3GmzP4xcRg+DzlaiQj6NTkSMn49hKjn6Dvc4k2+cNqdiXFq7mSCdRtGw3ID97j1ZiZ3ox7u/9OazdjeXbgdW7UvHYuFYYctajyC8F+1bNVAsI7UbUn2qFb1go/Hr1jhONJu641mx/my7MwZ61MeIvGxH1Jq+zIZtY4zd5kogzqnFa7R1r/OOrItjyRXL2VuzbtRUbF/miYturItCx7+9U8U4prPP02L5jK7asmw1NbSHerpLhh13jHzdi27lJSM7chH07NuHFyDqU16o7XeDMcZypc/Bzedi+SW6LMUvNGwizoQB5FRrMzxLPtVe89tVRsHxYgJ2GNrWEFfVvvoaiq1HI2rSjqz6n9v8OpZ+pRVT9nUNnVRytQ+QL8vzkIetJLU68/btb3q/Gw4dh6fFcxdj/ny7WuV2H+I3i3y+aDlPtefi/sBV7xLFQVY6qy2oZurMLF1CP8VDuE4+vtKEVOvj723d18Q9AIC7BZJIJX0TPD4e2tgjZbx2HqXNylAjwg6MYQBJJrZfFl9elI9j8whrbMK1VLxegotn1v6NEd7NBB5G2X2vvi4vNWAa9uNC6xlSJL60g+yMRJFTiSMUNzFqUiujJ4jfdOAV+sal4LuwGDh2utLVQdfKfm4x5Ib5QFAXakATEPwqcONug7m1ATc0NBP80BbFTNICigX9sIhJcaIC0c+I4ztZZ4wONVm4a3K9mDYTpq0uwTpyOEPlc4nevNiQRq9elYM4P7ftlXtDiV7Hl5UQEyiZFW33iMWfCDdSf6zmOre9z6LyguEREB8jz44OgRb9C8iM3UFHT8zhBT6Xc+lznzqt7nayzlxZaL/HvH5JtjpMQGKBA+b7Ik2f5O3sRcvBNA05XH7dvh4uRnX8E1yOTkRCi7neCJiIV/7p6NrR1hdCniy/I7N0wnOJYVaJOGq2v+EE1FbFr/hnbs1OR4HsehRt240TX4GMiGnQQaVv/72ci+tIlIH/vjtt3KZ//HKehw7QfOnYKKHj4EVH2SyNsjSMqpcfEZgUaL8BqVUO2yxfQaPFByNTu7uQBceY4LtTZHYLmP4vYK6X49QsbsbO4HFVnjdBMm4nHpnTXURkPXP2kFDtzM6DXy20XymVXcy99nsMBE4HkNB9YPr+A2zylyv5cjpytM7mguRpF7x6wbeVn70Xs8g3YkuZ6t78mLBHrNm3FHvEFmTjpEkq2rUd2cUOPH3VEY1Xggg3Iz1mM6Cm+0ASEY97qZzELdThW1dnTQkRDt05kSzMaMQn+XTGlCMZ6Pdv3xjkGaE6wtUp9D8pgu9ucPo4b6uysCTOR8rut2Jg6G9NwAYaCHCz/1UYYvlL3y67hfa8i+5AZYT/XIyfrN2JLQbynV/gREca36sP+jZA6323CkpGfn2fbMtYmIS7C4YSO14hg0gJL79YSkWEWezQiqO9JgSK+IOPSsrElNRymo6Wo4BAColt5BWDaRHkpsSmSqNOQBZH11ScBXQBsX2+TZdd2K0x/te3qYvprK+DrC6eX3BLHC7ynFRcvDrKtxJnjuKvOTrHCdOY46o1ygk8M4hanI6tgE1ZMbUbRQXEebepQU3UD0U+n2H8Z27rQtTLM9ZA2NH7WBuWHAV2Tp/o33HUeg7TTEaZrQ1Vts5ph11L7Z5h0oQiSwwraK7Fz2UrsrOz5+ddM1on3Vnzm2atNY921ShTqxY/4HpeR+HEmxw+Pu9eeJKKhCSLlOMm8Gh2Sf6XOzNb+CPHRwKE/FqNe7cq0nCpGYSUQN+9HLnTDhSL6ifH4+N3dqLosvwCtMFeVoaznkEAnOHEcZ+tsaYPFLDcLrovkdXkXFzXtitbKt5G3oxRNnV297V/DfFVUw7tzTrUWGm/gVO1xmGWV21vR+E4hSoew1aiptlKtjwhyK4pQenE84qJDbfuc4/k6kw7RCeG4+mERDp6V3W7is322FIUftmJW/Gz79egVhdnR8vNfAIOtjNBuRNV7R9HkHYFI3t6cxjrvGQj2bUbpe8dgsv3WEn8DDeUovyKuL8eWf6Ixzn1BpDqxRs5i078/CRl7s9G1GgwUBC/JxOpHzmDzS/Yyq3aeQdDzmUgOc61dKugX/4QVD3+Bwkw5Y24Nfm0AgieoO13Q/3Gcq3P9/gysekluxfhYpD92SNfbizhBPNfSF5HidxK56nMtSc9HhV8iMhZNUctMQXz6HASeKcTalXL/v6DIEm47xy1XhmaQ4YP3NaPwZVmfNdAXf4GgZ/8JSS5M3hiOOhOgiXoeWQs1qHg9w/berX29GtqFmUiL6fzpIz/bryIj0oxSWxn53uSgqDUC67IWI4j3N6cxzwfRq/VIuF6KTPm3S/4NPNCK2NR0h+81InLLOpEusdrHa8nZzIPSLo4jx3h5XcBBfT5O/XgDsp4awC9EZ47jrjo746YVlmtWKN6aXhNkusl7VsPLB8qQ9Qura0D+o33NTOs18eLH37k+zhj6Oo98Hr3ObKywmsVnqZ/PLd8butu49VqTf//bFWi8eYEQORrSdSLvSBEB2yCCMdMHG5H3TgPM94jj3DvwLgaXjjPIOrtknPhjJZ6rr4BN8fbsF35fAa2zPF1nkpR+A0iJ7w1RH+TffwaQRLfl+SBykPxiEhD02S78WnYxrFiDzPdaEbf6RZe7GNx1HCIiIqKxyPPd2e4iu33bAY1mkL8Q3XUcon6MyuuMaBTitUY09IanO9tdZLevOwI/dx2HiIiIaAwZvUEkEREREQ0bBpFERERE5DIGkURERETkMs8FkXICi9kC6001PQrI9fNst7kiIiIioh48F0SajmDzS/moMKnpPsnFruVdAsS2s/Pe0Z5mRMVvM7D5Q+fuqShv9Wir77LdLtyphoiIiGh0Gnnd2cZy5GadxGO5O5ARCcRFhas7Rir73V1Oz8zGvlWirpEzEazuISIiIrpbjbwgUhePxB/Y78Od92UC5kWo+SOWDnHPTEKRbDndfgnJT4/0oJeIiIho8Ny32LjlAgx7dqHkTBusIqlMCEXymlTEBqhrMNpaGKsRuTQGnx0oxQmzLOSD2MV6pMS4cstCC5oOvoVdH9ShxfZEPpj1zK+QNjfAvttp/R1HvX90RApiLx5A0Vn5uhT4Ry5CxvIYaJ28DWD9zpUo1aUj4UoptlUabedGMyUeWS8lwN/LXobGBi6ATOQZvNaIhp4bFxsXAVd+PkquRiEjfyv27chDRqQZRRt240SPiSlGlBrMiH9FlCnYgKwntaj6QzGqZEDZSQabtrGF6pZVDsdhlKYPXkfuQTOiV+dh396t2LI6Cq3vbsTOKhmeOc/Z4zQePgzLPD227xBl1s2GprYY+/+zTd0rOYzftG05MPQaRtn070WomZpiO8ae7MV47HI53jjYrO4lIiIiGn3cE0SePYLS5gAkr0lE0ATF1qoXtCgJCRO/wMW/qGVsdEhaJsr4ijJevgh6ejYe/64BjefV3TIg+xOwYu8OEdjJLRVxxjLsOtgZlTXAcKgZQQt/hfkhPiKtQBuSiOSf6HD+fIO9iFOcP07QUymYF+ILRZFlEhD/KHDiXFeFYTpYBvyqs75yHKcRRW/0DHytMxYgJTbAdgwlIAYJ0T5o+bQOjrEzERER0WjiliDSfPELWDQPw3+CmmEzBfNz85A4Q03ejpcG96sP7XSIS4uHn5oCwhEZCTR+dcmevHwBjZbxCJwsA79ugQuykb84VE05YcDHUaDp1QXtN18Eujo1IQTLiUDGZrSqaZt77lUf2CkajYgsgW/VNBEREdFo476JNV7jIUKjQeteKse+5dWoO7oouP8+9eGguOk4vbvftw/XkkREREREnuOWIFL7yMPQXGlA4xU1w6YNTdXH0dQjrx+1u6F/H0jOdeweVvdJE6cgSNOGs+cdxyQC5gvHcfpCz7w+ues4OImirDLgZ9ld9bUt80NERER0l3NPS2TIHCTqmlFaXAmTbV6KFaaKImzeexQttgLOMdm6rSfBv7N7WASVPVsipyNurg71/6cIVZfVCTCXK/H21kIc+dyedI6bjmM0okn8J3ByZ4VFUDmYlkjjEWxOX4PsP3HSDREREY1sburO1iFOn47Y1neQuVJ2665B5vtWJIi86B7jJPvmN38FknUnkdfZNfxeADJ+5jDgUPB76kVkRLaiKGuNvUxWGaxxeqTF9Rzf2B+3HEcXjxWifobtan2XlcF/VQKC1N0u+/9a0dRuRUuzfSkgIiIiopHKfetEdmq3wHJTgUajrg85VOS9uK9ZodEOciSmu47jLhYLxMlTE3Q34dp1RJ7Ba41o6LlxnUgHXpqhDyClcSJQdUfg567juAsDSCIiIhoF3B9EEhEREdFdj0EkEREREbmMQSQRERERuYxBJBERERG5jEEkEREREbmMQSQRERERuYxBJBERERG5jEEkEREREbmMQSQRERERuYxBJBERERG5CPj/AVW5gd0SgBr0AAAAAElFTkSuQmCC;" vertex="1" parent="1">
          <mxGeometry x="240" y="-10" width="356.74" height="360" as="geometry" />
        </mxCell>
        <mxCell id="I9BOtCBaJRc4SDi4wu6f-2" value="&lt;font style=&quot;&quot; face=&quot;Tahoma&quot;&gt;E-Commerce Review Dataset&lt;/font&gt;" style="rounded=0;whiteSpace=wrap;html=1;" vertex="1" parent="1">
          <mxGeometry x="240" y="360" width="360" height="30" as="geometry" />
        </mxCell>
        <mxCell id="I9BOtCBaJRc4SDi4wu6f-6" style="edgeStyle=orthogonalEdgeStyle;rounded=0;orthogonalLoop=1;jettySize=auto;html=1;" edge="1" parent="1" source="I9BOtCBaJRc4SDi4wu6f-3" target="I9BOtCBaJRc4SDi4wu6f-5">
          <mxGeometry relative="1" as="geometry" />
        </mxCell>
        <mxCell id="I9BOtCBaJRc4SDi4wu6f-3" value="&lt;h2&gt;&lt;b&gt;&lt;font face=&quot;Tahoma&quot;&gt;PhoBert&lt;/font&gt;&lt;/b&gt;&lt;/h2&gt;" style="shape=cylinder3;whiteSpace=wrap;html=1;boundedLbl=1;backgroundOutline=1;size=15;" vertex="1" parent="1">
          <mxGeometry x="330" y="440" width="190" height="170" as="geometry" />
        </mxCell>
        <mxCell id="I9BOtCBaJRc4SDi4wu6f-4" style="edgeStyle=orthogonalEdgeStyle;rounded=0;orthogonalLoop=1;jettySize=auto;html=1;exitX=0.5;exitY=1;exitDx=0;exitDy=0;entryX=0.5;entryY=0;entryDx=0;entryDy=0;entryPerimeter=0;" edge="1" parent="1" source="I9BOtCBaJRc4SDi4wu6f-2" target="I9BOtCBaJRc4SDi4wu6f-3">
          <mxGeometry relative="1" as="geometry">
            <Array as="points">
              <mxPoint x="425" y="390" />
            </Array>
          </mxGeometry>
        </mxCell>
        <mxCell id="I9BOtCBaJRc4SDi4wu6f-14" style="edgeStyle=orthogonalEdgeStyle;rounded=0;orthogonalLoop=1;jettySize=auto;html=1;entryX=0;entryY=0.5;entryDx=0;entryDy=0;" edge="1" parent="1" source="I9BOtCBaJRc4SDi4wu6f-5" target="I9BOtCBaJRc4SDi4wu6f-11">
          <mxGeometry relative="1" as="geometry" />
        </mxCell>
        <mxCell id="I9BOtCBaJRc4SDi4wu6f-5" value="&lt;h2&gt;&lt;b&gt;&lt;font face=&quot;Tahoma&quot;&gt;Sentiment&amp;nbsp;&lt;/font&gt;&lt;/b&gt;&lt;/h2&gt;&lt;h2&gt;&lt;b&gt;&lt;font face=&quot;Tahoma&quot;&gt;Analysis Model&lt;/font&gt;&lt;/b&gt;&lt;/h2&gt;" style="shape=cylinder3;whiteSpace=wrap;html=1;boundedLbl=1;backgroundOutline=1;size=15;" vertex="1" parent="1">
          <mxGeometry x="290" y="660" width="190" height="170" as="geometry" />
        </mxCell>
        <mxCell id="I9BOtCBaJRc4SDi4wu6f-7" value="" style="swimlane;startSize=0;" vertex="1" parent="1">
          <mxGeometry y="645" width="195" height="200" as="geometry" />
        </mxCell>
        <mxCell id="I9BOtCBaJRc4SDi4wu6f-8" value="&lt;h2&gt;&lt;font face=&quot;Tahoma&quot;&gt;FPT Play User&amp;nbsp;&lt;/font&gt;&lt;/h2&gt;&lt;h2&gt;&lt;font face=&quot;Tahoma&quot;&gt;Comment Dataset&lt;/font&gt;&lt;/h2&gt;" style="text;html=1;align=center;verticalAlign=middle;resizable=0;points=[];autosize=1;strokeColor=none;fillColor=none;" vertex="1" parent="I9BOtCBaJRc4SDi4wu6f-7">
          <mxGeometry x="5" y="50" width="190" height="100" as="geometry" />
        </mxCell>
        <mxCell id="I9BOtCBaJRc4SDi4wu6f-9" style="edgeStyle=orthogonalEdgeStyle;rounded=0;orthogonalLoop=1;jettySize=auto;html=1;entryX=0;entryY=0.5;entryDx=0;entryDy=0;entryPerimeter=0;" edge="1" parent="1" source="I9BOtCBaJRc4SDi4wu6f-7" target="I9BOtCBaJRc4SDi4wu6f-5">
          <mxGeometry relative="1" as="geometry" />
        </mxCell>
        <mxCell id="I9BOtCBaJRc4SDi4wu6f-10" value="&lt;h4&gt;&lt;b&gt;&lt;font face=&quot;Tahoma&quot;&gt;Input&lt;/font&gt;&lt;/b&gt;&lt;/h4&gt;" style="text;strokeColor=none;fillColor=none;align=left;verticalAlign=middle;spacingLeft=4;spacingRight=4;overflow=hidden;points=[[0,0.5],[1,0.5]];portConstraint=eastwest;rotatable=0;whiteSpace=wrap;html=1;" vertex="1" parent="1">
          <mxGeometry x="210" y="700" width="80" height="40" as="geometry" />
        </mxCell>
        <mxCell id="I9BOtCBaJRc4SDi4wu6f-11" value="" style="swimlane;startSize=0;" vertex="1" parent="1">
          <mxGeometry x="570" y="645" width="280" height="200" as="geometry" />
        </mxCell>
        <mxCell id="I9BOtCBaJRc4SDi4wu6f-12" value="&lt;h2&gt;&lt;font face=&quot;Tahoma&quot;&gt;Comment Sentiment&amp;nbsp;&lt;br&gt;&lt;/font&gt;&lt;font face=&quot;Tahoma&quot;&gt;(Negative, Positive, Neutral)&lt;/font&gt;&lt;/h2&gt;" style="text;html=1;align=center;verticalAlign=middle;resizable=0;points=[];autosize=1;strokeColor=none;fillColor=none;" vertex="1" parent="I9BOtCBaJRc4SDi4wu6f-11">
          <mxGeometry x="5" y="55" width="280" height="90" as="geometry" />
        </mxCell>
        <mxCell id="I9BOtCBaJRc4SDi4wu6f-15" value="&lt;h4&gt;&lt;b&gt;&lt;font face=&quot;Tahoma&quot;&gt;Output&lt;/font&gt;&lt;/b&gt;&lt;/h4&gt;" style="text;strokeColor=none;fillColor=none;align=left;verticalAlign=middle;spacingLeft=4;spacingRight=4;overflow=hidden;points=[[0,0.5],[1,0.5]];portConstraint=eastwest;rotatable=0;whiteSpace=wrap;html=1;" vertex="1" parent="1">
          <mxGeometry x="500" y="700" width="80" height="40" as="geometry" />
        </mxCell>
      </root>
    </mxGraphModel>
  </diagram>
</mxfile>
